<?xml version="1.0" standalone="no"?>
<!DOCTYPE svg PUBLIC "-//W3C//DTD SVG 1.1//EN" "http://www.w3.org/Graphics/SVG/1.1/DTD/svg11.dtd" >
<svg xmlns="http://www.w3.org/2000/svg">
<metadata>Generated by IcoMoon</metadata>
<defs>
<font id="icomoon" horiz-adv-x="1024">
<font-face units-per-em="1024" ascent="960" descent="-64" />
<missing-glyph horiz-adv-x="1024" />
<glyph unicode="&#x20;" horiz-adv-x="512" d="" />
<glyph unicode="&#xe900;" glyph-name="arrow" d="M802.679 374.238l-410.078-410.078c-37.615-37.581-99.089-37.581-136.704 0l-34.27 34.236c-37.581 37.547-37.581 99.055 0 136.636l312.969 312.969-312.969 312.934c-37.581 37.615-37.581 99.123 0 136.636l34.27 34.202c37.615 37.615 99.089 37.615 136.704 0l410.078-410.112c20.241-20.139 29.15-47.172 27.716-73.694 1.434-26.487-7.509-53.521-27.716-73.728z" />
<glyph unicode="&#xe901;" glyph-name="facebook" d="M512 960c-282.761 0-512-229.239-512-512s229.239-512 512-512c3.652 0 7.339 0.068 10.957 0.137v337.579h-113.391v141.722h113.391v85.026c0 116.77 65.911 198.451 170.086 198.451 49.869 0 85.026 0 113.357 0v-141.756h-56.695c-56.627 0-85.026-28.365-85.026-85.026v-56.695h141.722l-28.331-141.722h-113.391v-314.539c208.213 64.956 359.322 259.209 359.322 488.823 0 282.761-229.239 512-512 512z" />
<glyph unicode="&#xe902;" glyph-name="i1" d="M571.119 627.917c69.598 69.461 140.22 139.913 212.446 211.968-35.942 34.338-71.236 68.13-106.496 101.854 0.99 1.638 2.048 3.277 3.072 4.915 113.63 0 227.26 0 342.391 0 0-114.039 0-227.465 0-343.825-34.918 37.308-68.471 73.182-102.605 109.602-76.186-76.39-146.91-147.285-217.225-217.771-44.783 45.329-86.733 87.825-131.584 133.257zM1.536 946.961c0-114.927 0-228.318 0-345.975 37.137 38.025 71.612 73.284 108.612 111.172 73.25-73.967 143.77-145.101 212.787-214.767 43.657 43.418 86.016 85.538 131.379 130.697-70.383 69.495-141.619 139.913-214.596 211.968 36.011 35.806 70.622 70.246 107.554 106.94-117.214-0.034-231.117-0.034-345.737-0.034zM680.687-50.79c24.61 0 49.22 0 73.83 0 81.135-0.034 162.27-0.341 243.405 0 25.839 0.102 25.975 0.853 26.010 25.873 0.068 101.717 0.068 203.469 0.068 305.254 0 4.506-0.546 9.045-0.819 13.551-1.434 0.887-2.867 1.809-4.301 2.697-34.953-35.567-69.939-71.134-106.633-108.51-71.202 71.68-141.517 142.404-209.783 211.115-43.895-43.076-86.869-85.231-132.267-129.775 70.417-69.666 141.346-139.844 213.129-210.842-35.806-35.157-70.622-69.359-105.472-103.595 0.956-1.911 1.877-3.857 2.833-5.769zM448.41 271.872c-41.438 42.428-83.115 85.094-126.327 129.399-70.076-70.246-140.493-140.868-212.002-212.582-35.874 35.601-71.031 70.451-108.885 107.998-0.444-9.455-0.785-13.653-0.785-17.852-0.102-102.912 0.239-205.79-0.41-308.736-0.102-15.838 4.574-20.992 20.446-20.89 85.299 0.58 170.633 0.171 255.966 0.137 22.63-0.034 45.227 0 73.182 0-39.014 38.127-73.933 72.26-113.22 110.66 73.796 73.796 144.589 144.486 212.036 211.866z" />
<glyph unicode="&#xe903;" glyph-name="i2" d="M4.983 325.052c85.129 84.992 168.823 168.516 254.908 254.396-11.401 8.841-22.903 17.749-32.836 25.395 70.554 70.554 137.899 137.899 206.78 206.746 4.437-4.198 11.332-10.957 18.534-17.442 42.974-38.946 89.532-71.134 148.241-82.159 33.826-6.315 64.341 0.444 87.962 24.61 19.831 20.309 37.274 43.452 52.873 67.277 20.514 31.3 37.308 65.092 57.344 96.734 17.51 27.648 41.882 47.991 74.308 56.218 46.797 11.844 96.973-10.342 126.259-54.886 33.519-50.995 23.757-111.753-26.317-151.62-19.012-15.155-41.165-26.351-61.781-39.526-33.314-21.299-68.096-40.653-99.362-64.614-39.868-30.583-51.917-72.26-37.649-121.344 10.342-35.567 27.273-67.55 49.835-96.563 14.746-18.876 30.925-36.591 44.681-52.702-67.243-67.209-134.793-134.69-203.23-203.025-4.403 3.857-12.049 10.65-21.299 18.807-84.924-84.958-169.165-169.301-255.181-255.317-127.727 129.331-254.635 257.877-384.068 389.018zM290.065 234.667c-6.315-22.665-9.626-42.394-17.203-60.314-8.909-20.89-3.652-34.816 13.005-48.299 7.748-6.281 12.493-7.817 21.265-2.423 45.773 28.023 91.921 55.364 138.001 82.91 4.506 2.697 9.114 5.222 13.653 7.817-1.502-7.202-4.403-12.083-7.475-16.896-28.194-44.407-56.525-88.747-84.343-133.393-2.594-4.233-3.959-12.288-1.707-15.872 6.11-9.421 14.473-17.408 19.695-23.45 72.738 72.738 142.848 142.882 211.115 211.115-96.734 96.905-195.311 195.618-291.499 291.942-68.471-68.437-137.865-137.865-208.759-208.725 36.284-36.045 74.172-73.933 112.708-111.241 2.833-2.731 10.615-2.765 14.95-1.092 21.299 8.294 42.155 17.545 66.594 27.921zM429.534 743.492c-42.564-42.667-86.187-86.391-128.717-129.024 123.836-123.87 248.934-249.003 372.497-372.634 42.735 42.701 86.426 86.426 128.751 128.751-123.733 123.904-248.764 249.037-372.531 372.907z" />
<glyph unicode="&#xe904;" glyph-name="i3" d="M182.955 613.035c0 60.245 0 118.272 0 176.333 0 18.569-0.102 37.137 0.034 55.706 0.273 37.786 22.528 60.177 60.621 60.245 121.003 0.171 241.971 0.068 362.94 0.102 57.617 0 115.268 0.137 172.851-0.068 39.799-0.171 61.542-22.289 61.577-62.225 0.102-71.441 0.034-142.882 0.068-214.323 0-4.676 0-9.318 0-15.77 6.246 0 11.298 0 16.35 0 36.215 0 72.397 0.239 108.612-0.068 33.826-0.307 57.754-23.927 57.822-57.549 0.205-132.403 0.205-264.806 0-397.21-0.068-33.417-23.142-56.457-56.422-57.207-17.033-0.375-34.065-0.068-52.838-0.068 0-18.5 0-35.499 0-52.497 0-46.182-11.878-57.89-58.505-57.856-1.434 0.034-2.867 0-4.301 0.034-31.778 0.205-47.241 15.701-47.445 47.514-0.137 19.49-0.273 39.049-0.478 58.539 0 0.853-0.717 1.707-1.536 3.413-193.229 0-386.833 0-582.793 0 0-18.637 0-37.001 0-55.33 0-40.755-13.244-54.101-53.692-54.101-4.779 0-9.523-0.137-14.268 0.034-25.327 0.887-41.677 17.271-42.155 42.633-0.41 20.958-0.205 41.916-0.307 62.874 0 0.887-0.546 1.809-1.468 4.779-15.326 0-31.334-0.137-47.377 0.034-37.854 0.341-60.177 22.733-60.211 60.689-0.068 130.014-0.068 260.028 0 390.007 0.034 38.4 22.938 61.269 61.269 61.372 39.936 0.034 79.872-0.034 121.651-0.034zM292.762 394.069c146.569 0 291.942 0 437.76 0 0 134.212 0 267.639 0 400.862-146.5 0-291.874 0-437.76 0 0-133.803 0-266.513 0-400.862zM805.308 398.848c12.732-6.588 28.365-9.694 30.583-16.896 4.608-14.95 5.086-32.836 1.638-48.196-3.379-14.95-19.593-13.585-32.631-13.585-148.105 0.034-296.175 0-444.279 0-50.005 0-100.011 0.102-150.016 0.068-13.312 0-23.518 4.881-26.999 18.5-5.973 23.484-0.717 45.943 12.595 51.678 6.69 2.901 14.541 3.038 22.528 4.54 0 35.328 0 70.827 0 106.94-36.625 0-72.397 0-108.373 0 0-97.621 0-194.014 0-290.543 268.322 0 535.62 0 803.294 0 0 97.417 0 193.809 0 290.953-36.42 0-71.919 0-108.373 0 0.034-36.386 0.034-71.851 0.034-103.458z" />
<glyph unicode="&#xe905;" glyph-name="i4" d="M0-63.010c3.652 24.815 6.997 48.64 10.752 72.397 11.81 74.684 23.484 149.402 36.147 223.983 1.434 8.294 7.134 17.101 13.312 23.279 168.038 168.55 336.418 336.862 504.73 505.173 19.456 19.456 39.083 38.775 57.89 57.446 87.040-87.108 173.739-173.875 259.721-259.925-17.101-17.886-34.611-36.966-52.873-55.228-168.619-168.789-337.408-337.442-505.924-506.368-9.353-9.353-18.978-15.189-32.393-17.237-93.867-14.336-187.597-29.389-281.361-44.134-2.56-0.41-5.291 0.307-10.001 0.614zM683.554 671.095c-14.131 13.858-30.242 29.662-46.387 45.397-3.823 3.755-7.953 7.236-9.557 8.67-154.863-154.897-308.702-308.77-462.78-462.95 9.284-1.468 20.548-4.642 31.778-4.676 13.073-0.034 18.295-6.485 21.743-17.681 2.697-8.772 7.168-16.964 10.206-23.859 151.415 151.484 302.319 302.387 454.997 455.1zM332.425 107.418c150.801 150.835 303.445 303.479 455.714 455.748-17.545 16.998-37.308 36.181-53.76 52.156-150.596-150.596-302.046-302.080-453.564-453.564 0.205-0.137 2.799-2.492 5.769-3.311 28.467-7.714 47.241-23.245 45.841-51.029zM125.952 218.522c-10.342 1.331-16.623-1.468-18.33-13.312-4.881-33.792-11.127-67.413-15.565-101.239-0.819-6.383 2.594-15.087 7.066-20.036 15.155-16.794 31.164-32.939 47.957-48.094 5.359-4.847 14.575-9.011 21.333-8.124 34.406 4.369 68.574 10.615 102.878 15.906 10.001 1.57 14.029 6.929 13.961 16.896-0.341 45.943-0.239 45.943-42.701 65.161-2.526 1.126-4.949 2.594-7.578 3.345-22.050 6.178-36.318 20.343-40.892 42.598-6.417 31.266-23.893 47.548-56.661 45.636-3.755-0.205-7.612 0.853-11.469 1.263zM942.865 616.209c-87.757 87.893-173.602 173.841-261.666 262.042 26.795 23.279 47.206 57.173 82.261 73.796 27.921 13.21 57.549 9.626 80.247-12.288 54.101-52.19 107.179-105.506 159.676-159.3 23.825-24.405 27.955-65.365 7.373-91.682-20.582-26.283-45.602-49.050-67.891-72.567z" />
<glyph unicode="&#xe906;" glyph-name="i5" d="M551.151 621.295c-12.868 11.776-24.61 22.972-36.932 33.485-6.758 5.837-8.636 11.708-5.973 20.48 6.758 21.982 12.868 44.169 18.637 66.389 2.423 9.455 7.305 13.585 17.203 14.814 19.695 2.389 39.458 5.222 58.675 10.035 10.001 2.492 20.617 7.817 27.921 14.95 55.398 54.306 110.148 109.295 164.727 164.386 7.851 7.919 16.077 10.445 27.17 12.083 43.008 6.417 74.138-8.977 101.786-42.086 27.068-32.461 59.699-60.314 89.156-90.829 4.813-4.983 7.407-13.244 8.602-20.412 7.236-42.974-6.793-75.503-40.823-105.062-48.128-41.916-91.375-89.395-136.158-135.066-6.11-6.246-10.82-15.326-12.8-23.859-4.847-20.821-6.997-42.291-11.776-63.147-1.297-5.7-7.202-12.902-12.595-14.711-22.255-7.475-44.988-13.79-67.857-19.081-5.666-1.297-14.302 0.922-18.569 4.813-12.322 11.23-23.142 24.132-35.362 37.274-6.383-5.871-10.684-9.523-14.643-13.517-89.702-89.668-179.541-179.234-268.8-269.38-7.236-7.305-12.459-17.852-15.462-27.819-7.714-25.498-12.868-51.746-20.617-77.21-2.492-8.192-8.397-16.828-15.189-22.050-58.607-44.954-117.828-89.156-176.777-133.7-6.178-4.642-10.65-8.806-18.364-0.99-50.449 51.098-101.41 101.683-152.132 152.508-1.365 1.331-2.355 3.174-4.198 5.734 6.588 8.875 13.073 17.681 19.593 26.419 40.55 54.067 80.93 108.305 122.027 161.963 4.915 6.417 13.722 9.933 21.026 14.234 2.56 1.502 6.042 1.707 9.148 2.082 60.996 7.509 106.701 38.707 148.275 83.695 69.359 74.991 143.77 145.306 216.030 217.6 4.369 4.335 8.465 8.977 15.053 15.974zM589.244 577.024c-3.379-5.222-6.007-11.366-10.411-15.77-73.216-73.523-146.569-146.876-219.955-220.194-23.381-23.313-43.622-51.951-71.202-68.164-25.975-15.258-59.767-17.135-89.975-25.429-5.7-1.57-12.39-4.437-15.804-8.875-32.222-41.95-64-84.275-95.369-126.839-2.15-2.867-2.15-10.615 0.137-12.971 26.692-28.023 54.033-55.433 80.623-82.432 3.55 1.297 5.257 1.502 6.451 2.389 43.179 32.358 86.426 64.58 129.195 97.451 4.813 3.686 7.987 10.82 9.694 16.998 7.031 25.668 12.698 51.746 20.070 77.346 2.287 8.055 7.031 16.384 12.937 22.323 93.457 94.003 187.29 187.665 280.986 281.429 4.369 4.403 8.499 9.045 12.937 13.79-15.77 15.394-30.72 29.901-50.313 48.947zM896.137 767.351c-53.214-53.214-102.571-102.571-149.743-149.777 12.663-13.175 26.897-27.921 43.145-44.817-7.134 23.859 9.728 34.406 22.391 47.138 30.993 31.13 62.123 62.123 93.15 93.252 10.411 10.445 11.708 24.576 3.482 36.557-4.745 6.929-9.626 13.687-12.425 17.647zM828.655 829.065c-1.365 1.536-3.925 4.745-6.793 7.646-18.159 18.227-31.164 18.432-48.879 0.717-24.064-24.064-47.343-48.981-72.363-71.953-18.603-17.101-30.345-45.193-64.341-40.073 17.033-16.691 31.744-31.164 44.817-43.998 48.162 48.162 97.553 97.587 147.558 147.661z" />
<glyph unicode="&#xe907;" glyph-name="i6" d="M979.934-30.003c-42.598 6.656-83.217 13.073-123.836 19.388-51.098 7.987-102.195 16.179-153.361 23.723-12.527 1.843-22.426 6.315-31.539 15.599-48.674 49.391-97.963 98.202-147.081 147.217-3.652 3.652-7.543 7.1-12.083 11.401-82.193-82.193-163.635-163.703-244.19-244.292-84.139 84.378-166.673 167.117-250.402 251.017 79.974 79.974 161.69 161.655 244.565 244.565-43.827 44.373-85.709 86.733-126.601 128.137 82.603 82.705 165.513 165.649 249.446 249.617 41.267-41.131 83.49-83.183 125.781-125.269 87.927 87.962 175.343 175.445 261.7 261.837 85.129-85.197 167.97-168.107 251.665-251.836-85.845-85.777-173.329-173.193-261.973-261.734 5.188-5.666 8.875-9.933 12.834-13.926 49.698-49.835 99.703-99.43 148.958-149.777 6.076-6.212 10.445-15.872 11.878-24.542 13.926-84.378 27.034-168.858 40.38-253.338 1.297-8.329 2.321-16.691 3.857-27.785zM693.999 596.617c12.356 12.629 22.494 22.938 36.625 37.376 22.699-24.132 44.681-47.479 64.853-68.949 18.876 18.705 37.103 36.762 57.412 56.9-22.528 20.89-46.080 42.701-68.437 63.42 12.425 13.619 22.187 24.337 35.635 39.083 23.313-24.576 45.363-47.821 66.901-70.554 16.657 16.896 32.939 33.382 47.718 48.367-53.043 53.009-106.667 106.598-157.525 157.423-71.817-71.509-144.759-144.179-215.484-214.562 51.917-51.985 105.165-105.37 158.31-158.583 13.073 13.141 27.511 27.648 43.827 44.1-23.074 21.811-46.421 43.861-69.837 65.98zM264.841 167.765c22.665-24.030 44.646-47.309 65.195-69.086 21.402 21.709 42.052 42.598 65.126 66.014-22.255 20.651-45.739 42.496-67.686 62.908 11.913 13.346 21.572 24.132 34.953 39.083 23.552-24.542 45.739-47.65 65.775-68.54 12.425 11.435 25.088 23.074 35.26 32.393-53.555 53.828-106.735 107.247-157.662 158.413-65.911-65.604-132.813-132.233-198.007-197.12 52.087-52.258 105.37-105.745 158.413-158.959 9.694 9.25 20.241 19.217 32.836 31.198-24.474 22.869-47.923 44.749-71.953 67.174 12.937 12.459 23.040 22.255 37.751 36.523zM822.989 283.136c-148.241 148.343-295.39 295.629-439.706 440.047-17.818-17.34-36.932-35.908-52.873-51.439 142.916-143.053 287.027-287.334 431.377-431.889 2.662 6.315 6.861 14.234 9.387 22.665 3.379 11.127 9.318 16.35 21.572 16.35 10.274-0.034 20.514 2.799 30.242 4.267zM713.557 187.46c-145.818 145.818-290.509 290.509-433.357 433.323-17.988-17.306-37.513-36.045-53.214-51.098 145.237-145.51 290.816-291.294 436.463-437.214 0.273 3.618 1.434 9.25 0.956 14.677-1.263 13.722 4.915 21.504 17.579 26.112 10.854 3.925 21.129 9.455 31.573 14.199zM707.618 104.789c-1.092-26.897 0.785-29.867 18.091-32.495 30.788-4.676 61.542-9.728 92.467-13.517 6.11-0.717 14.473 1.911 19.046 6.042 16.828 15.258 33.109 31.334 48.265 48.265 4.403 4.983 6.69 14.097 5.939 20.89-2.594 23.040-7.305 45.875-10.684 68.847-5.939 40.448-5.666 39.458-45.807 35.806-19.319-1.741-31.471-8.533-35.362-28.058-6.451-32.631-26.385-52.634-58.3-60.996-25.634-6.69-38.775-21.845-33.655-44.783zM77.039 623.616c-18.398 18.364-39.356 37.82-58.573 58.846-24.542 26.863-24.951 68.608 0.853 95.403 49.903 51.814 100.83 102.707 152.576 152.678 27.477 26.487 70.281 25.259 97.929-0.649 20.070-18.807 39.117-38.673 57.037-56.491-83.251-83.251-166.059-166.059-249.822-249.788z" />
<glyph unicode="&#xe908;" glyph-name="i7" d="M575.932 244.019c0-101.342 0-201.728 0-303.104-10.581 0-20.309 0-31.232 0 0 101.001 0 201.66 0 303.036-22.050 0-42.906 0-64.683 0 0-101.103 0-201.455 0-302.899-10.65 0-20.378 0-31.334 0 0 100.625 0 201.284 0 302.865-6.417 0.307-11.674 0.717-16.93 0.717-95.505 0.034-191.044 0.137-286.549-0.205-8.602-0.034-12.937 2.833-16.862 10.308-41.335 78.507-82.978 156.843-124.826 235.076-4.13 7.714-3.891 13.722 0.137 21.299 42.018 78.507 83.9 157.116 125.338 235.93 3.755 7.1 7.885 9.045 15.462 9.011 97.178-0.205 194.389-0.102 291.567-0.068 3.584 0 7.202 0 11.878 0 0.205 4.403 0.546 7.919 0.546 11.469 0.034 38.4-0.068 76.8 0.171 115.234 0.034 3.925 0.887 9.045 3.413 11.674 19.388 20.207 39.322 39.936 60.211 60.962 15.497-15.701 29.559-31.846 45.602-45.705 14.063-12.151 19.319-25.463 18.398-44.066-1.604-32.017-0.444-64.137-0.444-96.154 0-3.959 0-7.919 0-13.483 4.813 0 8.67 0 12.527 0 96.495 0.034 193.024-0.068 289.553 0.273 9.114 0.034 13.995-2.662 18.364-10.957 41.267-78.541 82.978-156.877 124.791-235.11 3.686-6.929 3.823-12.39 0.068-19.456-42.121-78.814-84.070-157.764-125.747-236.817-3.584-6.861-7.509-9.387-15.326-9.353-96.87 0.307-193.741 0.205-290.577 0.205-4.198-0.034-8.465-0.444-13.517-0.683zM511.044 274.876c116.531 0 233.097 0.034 349.628-0.068 6.758 0 11.503 0.751 15.258 7.885 37.171 70.178 74.684 140.083 112.435 209.92 3.106 5.769 2.833 9.933-0.205 15.565-37.683 69.871-75.196 139.81-112.367 209.92-3.55 6.69-8.021 7.68-14.438 7.68-233.097-0.068-466.159-0.137-699.255 0-6.929 0.034-10.718-2.15-14.029-8.329-36.932-69.495-74.069-138.889-111.548-208.145-3.686-6.758-3.413-11.708 0.137-18.261 36.966-68.369 73.694-136.841 110.114-205.483 4.13-7.817 8.567-10.889 17.613-10.889 115.575 0.341 231.117 0.239 346.658 0.205zM512.444 912.725c-10.308-10.581-19.251-19.115-27.307-28.399-2.935-3.379-5.291-8.567-5.325-12.971-0.41-35.021-0.239-70.076-0.171-105.097 0-3.174 0.444-6.349 0.717-9.455 21.914 0 42.735 0 64.341 0 0 40.175 0.034 79.497-0.137 118.818 0 2.082-1.126 4.608-2.56 6.144-9.353 10.001-18.842 19.763-29.559 30.959zM29.798-59.221c-10.308 0-19.831 0-29.798 0 0 41.95 0 83.115 0 124.962 9.899 0 19.422 0 29.798 0 0-41.301 0-82.739 0-124.962zM64.41 66.116c10.138 0 19.422 0 29.525 0 0-41.779 0-83.183 0-125.372-9.694 0-19.217 0-29.525 0 0 41.506 0 82.944 0 125.372zM158.071-59.221c-10.308 0-19.797 0-29.833 0 0 41.95 0 83.115 0 124.996 9.933 0 19.422 0 29.833 0 0-41.37 0-82.773 0-124.996zM222.208-59.221c-10.308 0-19.831 0-29.833 0 0 41.95 0 83.115 0 124.962 9.933 0 19.422 0 29.833 0 0-41.335 0-82.739 0-124.962zM286.345-59.221c-10.308 0-19.831 0-29.833 0 0 41.916 0 83.115 0 124.996 9.933 0 19.422 0 29.833 0 0-41.37 0-82.773 0-124.996zM320.99 66.116c10.172 0 19.456 0 29.559 0 0-41.779 0-83.217 0-125.372-9.728 0-19.217 0-29.559 0 0 41.506 0 82.91 0 125.372zM414.891-59.324c-10.411 0-19.9 0-30.003 0 0 41.882 0 83.046 0 124.996 9.899 0 19.661 0 30.003 0 0-41.574 0-82.739 0-124.996zM609.553 65.843c9.83 0 19.319 0 29.628 0 0-41.574 0-83.012 0-125.133-9.83 0-19.319 0-29.628 0 0 41.609 0 83.046 0 125.133zM673.621 65.911c10.103 0 19.627 0 29.798 0 0-41.609 0-82.773 0-124.894-9.66 0-19.354 0-29.798 0 0 41.267 0 82.432 0 124.894zM767.898 65.604c0-41.882 0-82.807 0-124.655-10.069 0-19.797 0-30.208 0 0 41.472 0 82.637 0 124.655 9.762 0 19.524 0 30.208 0zM801.655-59.29c0 41.916 0 82.842 0 124.757 9.66 0 19.422 0 29.969 0 0-41.199 0-82.603 0-124.757-9.83 0-19.354 0-29.969 0zM896-59.221c-10.615 0-20.105 0-30.14 0 0 41.916 0 83.081 0 124.962 10.138 0 19.866 0 30.14 0 0-41.779 0-82.944 0-124.962zM959.863-59.255c-9.762 0-19.251 0-29.559 0 0 41.574 0 82.978 0 125.065 9.728 0 19.251 0 29.559 0 0-41.506 0-82.91 0-125.065zM994.441 65.775c9.728 0 19.251 0 29.559 0 0-41.472 0-82.876 0-125.030-9.762 0-19.251 0-29.559 0 0 41.54 0 82.944 0 125.030zM498.005 691.166c11.162 0 20.617 0 31.095 0 0-17.169 0-33.724 0-51.883 14.848 0 28.74 0.171 42.598-0.034 25.259-0.307 44.817-16.452 49.732-40.96 0.375-1.911 0.273-3.891 0.478-7.714-9.284 0-18.091-0.273-26.863 0.273-1.707 0.102-3.618 3.174-4.676 5.257-3.857 7.987-9.762 12.254-18.91 12.083-13.585-0.239-27.204-0.068-41.472-0.068 0-30.583 0-60.075 0-90.931 10.684 0 20.89 0.034 31.13-0.034 39.731-0.171 65.161-25.361 65.502-64.853 0.068-9.318 0.341-18.705-0.102-28.023-1.434-33.348-26.351-58.027-59.733-59.29-9.694-0.375-19.388-0.341-29.082 0-6.554 0.239-8.67-2.355-8.533-8.841 0.375-15.94 0.137-31.881 0.137-48.367-10.82 0-20.309 0-30.925 0 0 9.899 0 19.183 0 28.433 0 8.977 0 17.92 0 28.877-14.029 0-27.307-0.444-40.516 0.102-24.678 0.956-45.978 19.217-51.098 43.383-0.751 3.516-0.614 7.202-0.922 11.674 9.899 0 19.046 0 28.672 0 2.185-4.608 3.379-10.957 7.202-14.302 5.461-4.745 12.527-9.079 19.49-10.308 9.694-1.741 19.968-0.819 29.935-0.205 2.492 0.171 6.861 3.584 6.895 5.598 0.444 27.955 0.307 55.91 0.307 86.153-14.95 0-28.979-1.195-42.701 0.239-30.31 3.14-52.19 25.19-54.784 55.706-1.263 14.848-1.126 30.208 1.161 44.851 4.71 30.345 29.321 50.483 60.109 51.268 11.605 0.273 23.245 0.034 35.806 0.034 0.068 17.51 0.068 34.099 0.068 51.883zM498.415 608.085c-14.268 0-26.965 0.58-39.526-0.171-14.541-0.785-26.726-13.756-27.273-28.399-0.41-10.65-0.273-21.333-0.034-31.983 0.341-15.838 12.083-28.911 27.853-30.071 10.923-0.819 21.982-0.546 32.939-0.034 2.116 0.102 5.769 3.618 5.769 5.598 0.375 27.955 0.273 55.842 0.273 85.060zM529.408 485.683c0-28.843-0.102-57.105 0.307-85.333 0.034-1.775 4.198-4.813 6.519-4.949 10.001-0.512 20.070-0.717 30.037-0.034 17.033 1.195 29.116 13.551 30.003 30.583 0.546 9.967 0.546 20.036 0 30.003-0.751 14.814-10.854 28.126-24.030 29.423-13.79 1.365-27.785 0.307-42.837 0.307z" />
<glyph unicode="&#xe909;" glyph-name="i8" d="M160.802 832.546c235.281 0 469.026 0 704 0 0 16.384-0.171 32.256 0.034 48.162 0.512 40.073 27.375 71.407 66.662 78.063 46.729 7.919 90.487-27.921 92.433-75.605 0.102-2.014 0.068-4.028 0.068-6.007 0-285.901 0-571.836 0-857.771 0-39.799-21.982-70.178-58.197-79.906-7.953-2.15-16.418-3.174-24.678-3.174-285.559-0.171-571.187-0.171-856.781-0.137-50.449 0.034-84.343 33.792-84.343 83.934 0 284.911 0 569.856 0 854.767 0 41.062 27.58 76.937 63.932 83.422 52.361 9.318 96.29-27.307 96.87-80.896 0.137-14.609 0-29.218 0-44.851zM864.393 18.637c0 261.291 0 521.318 0 781.585-234.803 0-468.753 0-704.819 0 0-261.7 0-522.684 0-783.462-11.674 0-21.231 0-30.925 0-0.444 3.174-0.649 5.803-1.229 8.363-4.983 22.562-23.927 38.673-45.841 39.117-23.074 0.512-43.179-14.37-49.152-36.318-8.465-31.164 15.565-60.723 49.391-60.723 166.127 0 332.254 0 498.347 0 121.446 0 242.859-0.068 364.305 0.034 25.156 0.034 46.353 19.729 48.367 44.339 2.15 26.795-15.633 50.176-41.267 54.135-24.678 3.823-48.23-11.913-54.545-36.489-0.887-3.447-1.297-6.997-1.98-10.581-10.035 0-19.593 0-30.652 0zM128.102 79.155c0 7.782 0 13.346 0 18.944 0.512 161.075 1.058 322.15 1.434 483.26 0.239 99.021 0.375 198.076 0.341 297.131 0 28.843-22.153 50.586-50.756 50.586-26.999 0-48.094-22.153-48.094-50.551 0-262.144 0-524.254 0-786.398 0-3.755 0-7.543 0-13.175 32.905 21.060 64 21.367 97.075 0.205zM992.256 79.906c0.307 3.857 0.683 6.417 0.683 8.943 0.034 48.708 0 97.417 0 146.091 0 214.835 0.034 429.67 0 644.506 0 22.118-13.073 40.755-33.143 47.411-32.563 10.82-63.898-12.527-63.898-47.889-0.034-263.168-0.034-526.404 0-789.606 0-2.799 0.478-5.564 0.785-9.455 32.222 19.9 63.625 20.89 95.573 0zM800.188 95.915c0 90.999 0 181.316 0 272.418-73.796 0-147.046 0-221.082 0 0 10.684 0 20.446 0 31.095 73.591 0 146.842 0 220.843 0 0 90.863 0 180.668 0 271.906-20.378 0-40.516 0-60.996 0 0 10.684 0 19.9 0 29.969 30.686 0 61.133 0 92.262 0 0-211.866 0-423.595 0-636.211-212.412 0-425.028 0-638.396 0 0 211.831 0 423.799 0 636.382 149.231 0 298.121 0 448.375 0 0-8.67 0.683-17.033-0.478-25.088-0.307-2.15-6.178-4.949-9.489-4.983-35.021-0.341-70.042-0.171-105.131-0.171-3.891 0-7.817 0-13.073 0 0-32.017 0-62.805 0-94.037-10.615 0-19.866 0-30.413 0 0 30.857 0 61.645 0 93.218-86.835 0-172.373 0-258.662 0 0-89.941 0-179.78 0-270.234 85.879 0 171.383 0 258.048 0 0 36.454 0 72.363 0 108.919 10.547 0 20.036 0 30.345 0 0-83.763 0-167.663 0-252.109-9.933 0-19.388 0-29.901 0 0 36.898 0 73.455 0 110.763-86.596 0-172.134 0-258.458 0 0-90.146 0-180.395 0-271.531 85.47 0 171.281 0 258.082 0 0 30.754 0 61.338 0 92.57 10.513 0 19.968 0 30.891 0 0-30.652 0-61.508 0-92.911 96.324 0.034 191.249 0.034 287.232 0.034z" />
<glyph unicode="&#xe90a;" glyph-name="i9" d="M511.863-63.761c-161.929 0-323.823 0-485.751 0-20.787-0.034-26.112 5.052-26.112 25.327 0 323.174 0.034 646.349 0.068 969.489 0 2.765 0.102 5.564 0 8.329-0.205 8.875 3.311 15.531 11.674 18.944 8.465 3.447 15.599 0.717 21.709-5.393 14.268-14.199 28.467-28.433 42.667-42.633 311.945-311.774 623.923-623.548 935.834-935.322 1.98-1.98 3.891-3.959 5.837-5.939 6.315-6.383 7.748-13.995 4.471-22.016-3.243-7.885-9.967-10.854-18.432-10.82-36.727 0.068-73.489-0.068-110.251-0.068-127.249-0.034-254.464 0-381.747 0 0.034 0.034 0.034 0.068 0.034 0.102zM509.133 421.82c-2.253-3.447-4.096-7.373-6.929-10.342-11.844-12.151-23.757-24.303-36.113-36.011-8.567-8.090-19.319-7.68-26.931 0.205-7.305 7.543-7.407 17.647 0 26.214 3.413 3.925 7.236 7.475 10.923 11.127 11.503 11.366 23.074 22.665 33.451 32.87-18.022 18.261-34.645 35.157-53.009 53.794-6.588-7.27-13.312-15.155-20.548-22.562-9.626-9.899-21.367-11.093-29.321-3.516-8.533 8.124-7.851 20.002 2.492 29.969 7.646 7.339 16.077 13.892 23.074 19.831-19.558 19.627-36.318 36.42-53.521 53.692-1.809-1.707-4.369-3.959-6.793-6.349-12.527-12.493-24.849-25.19-37.615-37.41-7.919-7.612-18.807-7.509-26.283-0.649-7.339 6.793-7.953 18.091-1.161 26.249 2.867 3.447 6.246 6.519 9.421 9.694 12.22 12.083 24.508 24.098 35.567 35.021-17.988 18.193-34.714 35.055-53.316 53.828-6.895-7.646-13.995-16.145-21.777-23.996-9.353-9.421-20.343-9.762-28.467-1.604-7.817 7.919-7.27 19.251 2.048 28.501 7.851 7.782 16.247 14.985 24.303 22.391-18.603 18.466-35.533 35.226-53.658 53.18-13.346-13.585-27.034-27.75-41.097-41.54-3.584-3.516-8.090-7.031-12.766-8.226-8.397-2.15-16.009 0.717-20.275 8.841-4.267 8.192-3.379 16.282 3.209 22.938 14.848 14.985 29.901 29.798 42.735 42.53-43.554 43.827-86.323 86.903-129.399 130.287 0-3.516 0-7.543 0-11.571 0-100.932 0-201.865 0-302.763 0-196.983 0.034-394.001-0.171-590.95 0-8.704 1.809-12.083 11.401-12.083 299.315 0.239 598.596 0.205 897.877 0.205 3.174 0 6.383 0.41 9.66 0.649-43.657 43.691-86.426 86.528-129.741 129.877-2.116-2.014-4.915-4.54-7.543-7.202-12.083-11.981-23.927-24.132-36.147-35.977-8.158-7.919-19.763-8.397-27.102-1.57-8.055 7.543-8.192 18.876-0.034 27.75 4.676 5.086 9.694 9.865 14.643 14.78 10.035 9.933 20.105 19.831 29.184 28.774-17.954 18.057-34.748 34.918-53.248 53.521-6.758-7.441-13.687-15.599-21.197-23.211-9.626-9.762-21.333-10.513-29.252-2.423-7.782 7.919-6.861 19.968 2.935 29.355 7.714 7.407 16.077 14.029 23.074 20.105-19.217 19.422-35.908 36.318-53.077 53.726-2.048-1.911-4.608-4.13-6.997-6.519-11.844-11.742-23.484-23.586-35.362-35.226-10.138-9.967-20.924-10.65-29.252-2.15-8.124 8.294-7.134 18.978 2.833 29.184 3.857 3.959 7.748 7.919 11.776 11.776 10.479 9.967 20.958 19.866 30.174 28.57-18.466 18.739-35.089 35.635-51.951 52.736 0.102 0.068-0.683-0.034-1.126-0.512-6.929-6.758-13.824-13.619-20.753-20.412-10.274-10.035-22.084-11.059-30.14-2.697-7.817 8.124-6.929 19.695 3.106 29.286 7.68 7.339 16.077 13.926 23.723 20.48-19.354 19.354-35.977 35.942-55.535 55.535zM197.154 290.099c0 43.349 0 86.63 0 129.98 0 2.082 0.034 4.13 0.068 6.246 0.034 8.67 3.038 15.667 11.503 19.183 8.806 3.618 16.111 0.751 22.528-5.666 27.682-27.75 55.398-55.398 83.081-83.081 61.781-61.747 123.529-123.426 185.276-185.207 2.697-2.697 5.564-5.291 7.748-8.363 8.124-11.537 2.731-25.941-11.059-29.15-3.994-0.922-8.226-1.058-12.356-1.058-86.972-0.034-173.943-0.034-260.949-0.034-19.558 0-25.907 6.076-25.941 25.19-0.068 43.998-0.034 87.996-0.034 131.994 0.068-0.034 0.102-0.034 0.137-0.034zM440.218 171.008c-68.267 68.574-136.841 137.455-204.971 205.892-0.068-1.126-0.375-3.823-0.375-6.519-0.034-62.669 0.171-125.372-0.239-188.041-0.068-9.284 2.628-11.571 11.708-11.503 61.986 0.375 123.972 0.171 185.958 0.171 3.379 0 6.758 0 7.919 0z" />
<glyph unicode="&#xe90b;" glyph-name="i10" d="M128.171-48.367c0 54.886 0 107.418 0 160.597-23.825 2.048-45.602 7.543-64.887 20.48-41.131 27.58-63.351 65.502-63.283 115.712 0.102 101.478 0.034 202.923 0.034 304.367 0 63.693 42.291 117.487 104.209 132.096 8.67 2.048 17.818 2.867 26.726 2.935 37.376 0.307 74.752 0.137 112.162 0.137 3.925 0 7.851 0 13.278 0 0 4.779 0 8.636 0 12.527 0 36.386 0 72.772 0 109.124 0.034 63.386 42.837 117.555 104.585 131.823 8.363 1.946 17.135 2.765 25.737 2.799 168.209 0.171 336.452 0.239 504.661 0.102 72.567-0.034 132.54-60.177 132.574-132.471 0.068-103.799 0.068-207.599 0-311.398-0.034-64.341-51.029-121.958-114.79-129.98-3.959-0.512-7.885-1.297-12.766-2.15 0-56.183 0-112.469 0-170.633-42.496 42.94-83.593 84.446-124.689 125.952-1.161-0.614-2.287-1.195-3.482-1.775-0.205-3.379-0.512-6.724-0.58-10.103-0.614-29.013 0.307-58.095-2.082-86.972-4.301-52.258-57.822-106.394-110.217-110.012-40.823-2.833-81.954-1.946-122.982-2.116-64.102-0.307-128.171 0.102-192.239-0.375-6.042-0.034-13.141-2.56-17.886-6.315-61.201-48.469-122.095-97.382-183.057-146.125-2.833-2.219-5.803-4.335-11.025-8.226zM190.805 81.033c5.052 3.721 7.748 5.598 10.274 7.646 33.109 26.453 66.321 52.77 99.191 79.531 6.383 5.188 12.698 7.236 20.855 7.202 107.486-0.205 214.938-0.171 322.458-0.102 36.25 0.034 61.338 24.883 61.372 60.826 0.102 109.466 0.102 218.965-0.034 328.465-0.034 35.567-24.713 60.621-60.45 60.655-174.251 0.171-348.501 0.137-522.752 0-33.587-0.034-58.948-25.429-59.017-59.085-0.171-110.49-0.171-220.979 0-331.469 0.034-33.69 24.951-58.675 58.743-59.324 17.033-0.341 34.065-0.102 51.063-0.137 18.295-0.034 18.261 0 18.261-18.671 0-24.303 0.034-48.572 0.034-75.537zM829.44 348.843c1.263 0.785 2.526 1.604 3.789 2.389 0 23.962 0.205 47.957-0.137 71.919-0.102 6.554 2.082 8.67 8.602 8.533 19.046-0.341 38.059-0.102 57.071-0.068 38.059 0.137 62.566 24.576 62.566 62.669 0.068 107.793 0.068 215.586 0 323.413-0.034 40.107-23.859 63.863-64.239 64-39.356 0.137-78.78 0-118.135 0-133.154 0-266.342 0.034-399.531-0.068-34.953 0-60.211-25.054-60.382-59.733-0.171-41.404-0.034-82.773 0-124.177 0-2.901 0.375-5.803 0.649-9.796 4.471 0 8.397 0 12.288 0 100.454 0 200.909 0.102 301.397-0.102 10.24 0 20.685-0.956 30.686-3.209 60.041-13.585 103.39-68.164 103.492-129.536 0.068-34.714 1.911-69.564-0.58-104.073-2.014-27.75 5.564-48.333 27.409-65.638 13.141-10.377 23.484-24.235 35.055-36.523zM160.29 400.35c0.068 29.798 33.075 62.908 63.044 63.249 29.321 0.341 63.010-32.939 63.522-62.771 0.546-29.764-33.621-64.034-63.556-63.795-29.628 0.239-63.044 33.792-63.010 63.317zM320.546 400.452c0.239 29.901 33.314 62.976 63.181 63.113 29.457 0.171 63.078-33.178 63.42-62.908 0.341-29.901-33.86-64.068-63.693-63.659-29.833 0.444-63.147 34.065-62.908 63.454zM544.222 336.998c-29.218-0.375-62.908 33.007-63.454 62.908-0.546 29.355 32.222 62.737 62.601 63.693 29.355 0.922 64.205-33.587 64-63.351-0.239-29.867-33.143-62.839-63.147-63.249z" />
<glyph unicode="&#xe90c;" glyph-name="i11" d="M512 790.050l321.195-160.631-321.195-160.631-321.195 160.597 321.195 160.666zM512 885.385l-512-256 512-256 512 256-512 256zM928.017 314.607l-416.017-208.009-415.983 208.009-96.017-47.991 512-256 512 256-95.983 47.991zM928.017 495.718l-416.017-207.974-415.983 207.974-96.017-47.991 512-256 512 256-95.983 47.991z" />
<glyph unicode="&#xe90d;" glyph-name="skype" d="M512 960c-282.761 0-512-229.239-512-512s229.239-512 512-512 512 229.239 512 512-229.239 512-512 512zM628.838 182.818c-24.781 0-48.026 6.212-68.403 17.135-14.814-2.731-30.037-4.164-45.636-4.164-137.796 0-249.412 111.65-249.412 249.446 0 17.135 1.707 33.929 5.052 50.142-12.629 21.47-19.9 46.455-19.9 73.148 0 79.906 64.751 144.657 144.657 144.657 28.262 0 54.647-8.158 76.937-22.187 13.892 2.355 28.126 3.618 42.667 3.618 137.728 0 249.412-111.65 249.412-249.378 0-18.398-1.98-36.284-5.769-53.555 9.626-19.354 15.019-41.131 14.985-64.205 0-79.906-64.717-144.657-144.589-144.657zM621.909 455.27c-11.708 7.612-26.044 14.165-42.667 19.456-16.384 5.257-34.953 10.103-55.125 14.438-15.94 3.686-27.58 6.519-34.509 8.465-6.758 1.843-13.551 4.471-20.070 7.782-6.315 3.209-11.332 6.963-14.882 11.332-3.379 4.096-4.983 8.806-4.983 14.507 0 9.25 5.052 17.101 15.462 23.893 10.786 7.1 25.361 10.684 43.213 10.684 19.285 0 33.28-3.209 41.677-9.591 8.636-6.588 16.145-15.906 22.357-27.716 5.359-9.25 10.24-15.667 14.882-19.831 5.018-4.403 12.254-6.656 21.504-6.656 10.172 0 18.773 3.584 25.6 10.684 6.793 7.1 10.24 15.155 10.24 24.098 0 9.25-2.594 18.842-7.782 28.433-5.12 9.557-13.312 18.671-24.269 27.273-10.854 8.499-24.747 15.394-41.199 20.514-16.35 5.052-35.908 7.646-58.163 7.646-27.887 0-52.531-3.891-73.216-11.537-20.958-7.714-37.274-19.046-48.401-33.587-11.23-14.643-16.93-31.642-16.93-50.483 0-19.797 5.461-36.557 16.145-49.971 10.547-13.175 24.951-23.723 42.871-31.334 17.476-7.441 39.458-13.995 65.365-19.524 19.012-3.994 34.406-7.817 45.739-11.366 10.854-3.413 19.797-8.294 26.624-14.677 6.451-6.11 9.591-13.824 9.591-23.654 0-12.459-6.007-22.63-18.432-31.095-12.698-8.704-29.628-13.107-50.278-13.107-14.95 0-27.17 2.15-36.215 6.417-8.977 4.267-16.009 9.728-20.924 16.213-5.086 6.69-9.899 15.258-14.302 25.395-3.994 9.284-8.875 16.486-14.609 21.367-6.007 5.052-13.414 7.646-21.982 7.646-10.479 0-19.217-3.277-26.044-9.694-6.895-6.451-10.377-14.404-10.377-23.518 0-14.643 5.359-29.764 15.94-45.022 10.513-15.155 24.303-27.409 41.097-36.42 23.45-12.425 53.487-18.773 89.293-18.773 29.833 0 56.081 4.642 77.926 13.687 22.084 9.216 39.151 22.118 50.654 38.468 11.571 16.35 17.476 35.089 17.476 55.603 0 17.203-3.413 31.983-10.138 43.93-6.758 11.844-16.247 21.845-28.16 29.628z" />
<glyph unicode="&#xe90e;" glyph-name="youtube" d="M512 960c-282.761 0-512-229.239-512-512s229.239-512 512-512 512 229.239 512 512-229.239 512-512 512zM742.468 429.397c0-39.799-4.608-79.565-4.608-79.565s-4.506-33.894-18.295-48.811c-17.545-19.558-37.205-19.661-46.217-20.821-64.478-4.949-161.348-5.086-161.348-5.086s-119.842 1.161-156.706 4.949c-10.274 2.048-33.28 1.434-50.825 20.992-13.824 14.916-18.33 48.811-18.33 48.811s-4.608 39.765-4.608 79.599v37.274c0 39.799 4.608 79.565 4.608 79.565s4.506 33.894 18.33 48.845c17.545 19.558 37.171 19.695 46.182 20.787 64.512 4.983 161.28 4.983 161.28 4.983h0.205c0 0 96.768 0 161.28-4.983 9.011-1.092 28.672-1.229 46.217-20.787 13.79-14.95 18.295-48.845 18.295-48.845s4.608-39.799 4.608-79.599v-37.308h-0.068zM468.685 372.395l126.020 75.605-125.986 75.571v-151.177z" />
<glyph unicode="&#xe90f;" glyph-name="user" d="M512 960c138.103 0 250.061-111.957 250.061-250.027s-111.923-250.061-250.061-250.061c-138.069 0-250.027 111.957-250.027 250.061s111.957 250.027 250.027 250.027zM654.848 348.877c-42.598-22.869-91.17-36.045-142.814-36.386-51.644 0.375-100.25 13.517-142.848 36.386-87.927-78.746-222.003-166.468-222.003-412.877h729.668c0 246.409-134.076 334.131-222.003 412.877z" />
<glyph unicode="&#xe910;" glyph-name="calc" d="M70.724 960v-1024h882.517v1024h-882.517zM287.403 64.853c-42.018 0-76.117 34.065-76.117 76.117 0 41.95 34.065 76.117 76.117 76.117 42.018 0 76.083-34.167 76.083-76.117-0.034-42.018-34.065-76.117-76.083-76.117zM287.403 289.69c-42.018 0-76.117 34.065-76.117 76.083 0 41.95 34.065 76.015 76.117 76.015 42.018 0 76.083-34.065 76.083-76.015-0.034-42.018-34.065-76.083-76.083-76.083zM507.904 64.853c-41.984 0-76.083 34.065-76.083 76.117 0 41.95 34.099 76.117 76.083 76.117 42.018 0 76.117-34.167 76.117-76.117 0-42.018-34.099-76.117-76.117-76.117zM507.904 289.69c-41.984 0-76.083 34.065-76.083 76.083 0 41.95 34.099 76.015 76.083 76.015 42.018 0 76.117-34.065 76.117-76.015 0-42.018-34.099-76.083-76.117-76.083zM728.439 64.853c-42.018 0-76.083 34.065-76.083 76.117 0 41.95 34.065 76.117 76.083 76.117 41.95 0 76.117-34.167 76.117-76.117 0-42.018-34.099-76.117-76.117-76.117zM728.439 289.69c-42.018 0-76.083 34.065-76.083 76.083 0 41.95 34.065 76.015 76.083 76.015 41.95 0 76.117-34.065 76.117-76.015 0-42.018-34.099-76.083-76.117-76.083zM822.921 509.372h-621.875v312.798h621.875v-312.798z" />
<glyph unicode="&#xe911;" glyph-name="place" d="M576 149.333h-128c-11.776 0-21.333 9.523-21.333 21.333v169.95c-94.174 49.425-128 178.859-128 278.050 0 11.81 9.557 21.333 21.333 21.333h384c11.776 0 21.333-9.523 21.333-21.333 0-99.191-33.826-228.625-128-278.050v-169.95c0-11.81-9.557-21.333-21.333-21.333zM469.333 192h85.333v162.133c0 8.567 5.12 16.35 13.039 19.661 82.466 34.816 110.012 148.343 114.347 223.539h-340.070c4.335-75.162 31.846-188.757 114.347-223.539 7.885-3.345 13.039-11.093 13.039-19.661v-162.133zM512 661.333c-82.364 0-149.333 67.004-149.333 149.333s66.97 149.333 149.333 149.333c82.33 0 149.333-67.004 149.333-149.333s-67.004-149.333-149.333-149.333zM512 917.333c-58.812 0-106.667-47.855-106.667-106.667s47.855-106.667 106.667-106.667c58.812 0 106.667 47.855 106.667 106.667s-47.855 106.667-106.667 106.667zM512 42.667c-118.852 0-320 20.241-320 96.017 0 37.683 48.913 65.365 145.374 82.261 11.776 1.911 22.665-5.803 24.678-17.374 2.014-11.605-5.734-22.63-17.306-24.713-85.641-14.95-108.646-35.908-110.114-40.653 5.734-17.818 106.121-52.873 277.367-52.873 171.281 0 271.633 35.021 277.367 53.794-1.434 3.823-24.371 24.678-109.568 39.629-11.605 2.082-19.319 13.107-17.306 24.713s12.971 19.251 24.713 17.34c96.085-16.828 144.794-44.51 144.794-82.125 0-75.776-201.182-96.017-320-96.017zM512-64c-332.527 0-512 98.918-512 192 0 101.376 174.899 160.051 338.569 181.248 11.571 1.399 22.357-6.724 23.893-18.432 1.502-11.708-6.758-22.391-18.466-23.893-197.837-25.566-301.363-89.19-301.363-138.889 0-70.622 192.751-149.333 469.333-149.333 276.617 0 469.333 78.711 469.333 149.333 0 49.698-103.492 113.323-301.261 138.854-11.708 1.536-19.934 12.186-18.432 23.893 1.502 11.742 12.254 19.729 23.893 18.432 163.669-21.163 338.5-79.838 338.5-181.214 0-93.082-179.473-192-512-192z" />
<glyph unicode="&#xe912;" glyph-name="type" d="M1002.667 362.667h-725.333c-11.81 0-21.333 9.557-21.333 21.333v469.333c0 11.776 9.523 21.333 21.333 21.333h725.333c11.81 0 21.333-9.557 21.333-21.333v-469.333c0-11.776-9.523-21.333-21.333-21.333zM298.667 405.333h682.667v426.667h-682.667v-426.667zM874.667 192h-725.333c-11.81 0-21.333 9.557-21.333 21.333v469.333c0 11.776 9.523 21.333 21.333 21.333h64v-42.667h-42.667v-426.667h682.667v85.333h42.667v-106.667c0-11.776-9.523-21.333-21.333-21.333zM746.667 21.333h-725.333c-11.81 0-21.333 9.557-21.333 21.333v469.333c0 11.776 9.523 21.333 21.333 21.333h64v-42.667h-42.667v-426.667h682.667v85.333h42.667v-106.667c0-11.776-9.523-21.333-21.333-21.333z" />
<glyph unicode="&#xe913;" glyph-name="quadrature" d="M1014.647 918.016c9.114 9.114 10.957 23.791 1.843 32.905-9.079 9.079-22.903 7.1-31.983-1.98l-225.007-227.874h-486.434v73.762c0 12.834-3.038 28.638-15.906 28.638h-139.639c-12.868 0-15.121-15.804-15.121-28.638v-73.762h-77.995c-12.868 0-24.405-6.485-24.405-19.354v-139.639c0-12.834 11.537-11.674 24.405-11.674h77.995v-500.292c0-12.868 2.253-11.708 15.121-11.708h496.879v-81.408c0-12.868 2.219-20.992 15.087-20.992h139.639c12.868 0 15.94 8.124 15.94 20.992v81.408h77.175c12.868 0 25.225-1.161 25.225 11.708v139.639c0 12.834-12.356 19.319-25.225 19.319h-77.175v483.021l229.581 225.929zM136.533 789.333h102.4v-68.267h-102.4v68.267zM34.133 584.533v102.4h716.8v-477.867h-102.4v353.007c0 3.004 1.502 6.042 0.307 8.875-2.321 5.7-5.769 9.83-11.503 12.186-2.867 1.195-4.847 1.399-7.885 1.399h-595.319zM273.067 550.4h300.237l-300.237-304.503v304.503zM614.4 505.89v-296.823h-301.090l301.090 296.823zM648.533-29.867v68.267h102.4v-68.267h-102.4zM853.333 174.933v-102.4h-716.8v477.867h102.4v-360.619c0-3.038-1.946-6.076-0.717-8.943 2.321-5.7 5.598-6.007 11.332-8.363 2.867-1.161 4.574 2.458 7.612 2.458h596.173z" />
<glyph unicode="&#xe914;" glyph-name="projects" d="M1024 746.667v213.333h-213.333v-85.333h-597.333v85.333h-213.333v-213.333h106.667v-597.333h-106.667v-213.333h213.333v85.333h597.333v-85.333h213.333v213.333h-85.333v597.333h85.333zM853.333 917.333h128v-128h-128v128zM42.667 917.333h128v-128h-128v128zM170.667-21.333h-128v128h128v-128zM981.333-21.333h-128v128h128v-128zM896 149.333h-85.333v-85.333h-597.333v85.333h-64v597.333h64v85.333h597.333v-85.333h85.333v-597.333z" />
<glyph unicode="&#xe915;" glyph-name="check" d="M302.080 545.28l-71.68-71.68 230.4-230.4 512 512-71.714 71.68-440.286-440.354-158.72 158.754zM921.6 448c0-225.314-184.286-409.6-409.6-409.6-225.28 0-409.6 184.286-409.6 409.6 0 225.28 184.32 409.6 409.6 409.6 40.926 0 76.8-5.12 112.674-15.36l81.852 81.886c-61.44 20.514-128 35.874-194.526 35.874-281.6 0-512-230.4-512-512s230.4-512 512-512 512 230.4 512 512h-102.4z" />
<glyph unicode="&#xe916;" glyph-name="remove" d="M1024 852.036l-107.93 107.964-404.070-404.036-404.036 404.036-107.964-107.964 404.036-404.036-404.036-404.070 107.964-107.93 404.036 404.070 404.070-404.070 107.93 107.93-404.070 404.070z" />
<glyph unicode="&#xe917;" glyph-name="pin" d="M22.255 459.503c60.587 67.823 133.53 108.544 222.037 120.866 38.332 5.325 76.425 4.71 114.586-1.741 4.437-0.751 11.025 1.161 14.199 4.301 57.515 56.9 114.62 114.244 171.861 171.383 3.379 3.379 5.359 6.076 2.458 11.196-20.924 36.966-17.135 74.172-0.171 111.275 14.609 31.983 38.639 56.525 63.317 80.555 5.803 5.598 8.977 1.024 12.493-2.458 27.477-27.375 54.852-54.75 82.295-82.193 103.424-103.458 206.882-206.916 310.272-310.374 10.411-10.411 10.206-10.308-0.205-21.094-24.269-25.122-50.142-48.026-83.149-61.235-34.85-13.892-69.393-15.599-103.014 3.652-6.417 3.686-9.114-0.273-12.595-3.721-50.074-50.074-100.147-100.113-150.187-150.153-6.178-6.212-12.015-12.834-18.671-18.5-5.939-5.086-6.724-10.786-5.632-17.988 18.057-117.76-11.401-221.355-92.809-309.35-7.953-8.602-16.316-16.93-25.088-26.112-76.698 76.834-152.371 152.678-228.42 228.898-83.968-83.968-167.458-167.492-250.675-250.709-15.462 15.667-29.594 29.935-44.544 45.022 82.842 82.842 166.366 166.366 250.334 250.334-76.732 76.561-152.542 152.166-228.693 228.147zM304.742 526.916c-74.547-1.502-132.233-21.641-183.808-60.041-7.851-5.905-7.441-9.489-0.785-16.077 50.074-49.596 99.772-99.499 149.572-149.333 81.749-81.749 163.499-163.465 245.248-245.282 4.574-4.608 7.919-8.875 13.995-0.887 37.888 49.664 58.846 105.574 61.065 167.97 1.809 49.357-8.738 96.666-32.7 139.844-57.242 102.81-144.384 158.515-252.587 163.806zM619.486 373.692c52.668 52.702 104.277 104.346 154.624 154.795-60.45 60.553-121.583 121.651-180.975 181.146-50.825-50.79-102.434-102.366-154.487-154.351 83.081-36.352 143.77-97.075 180.838-181.589zM616.448 870.98c-29.15-27.648-32.051-60.757-5.018-87.484 51.985-51.405 103.526-103.356 155.238-155.068 27.443-27.409 54.886-54.75 82.261-82.227 26.010-26.146 60.348-21.367 85.538 6.69-106.052 106.018-212.036 212.036-318.020 318.089z" />
<glyph unicode="&#xe918;" glyph-name="phone" d="M831.795 447.010c0-125.508 0-251.051 0-376.559 0-62.874-42.94-117.18-104.073-131.174-8.704-2.014-17.783-3.14-26.692-3.14-126.191-0.205-252.382-0.239-378.539-0.102-63.113 0.068-120.9 51.507-128.512 114.074-0.853 6.929-1.57 13.926-1.57 20.89-0.102 253.065-0.102 506.095-0.068 759.125 0 62.737 51.439 120.422 114.347 128.273 7.578 0.956 15.258 1.536 22.903 1.536 122.812 0.102 245.658 0.068 368.503 0.068 74.172 0 133.769-60.075 133.7-134.451-0.102-126.157-0.034-252.348 0-378.539zM254.942 223.539c172.237 0 342.63 0 513.673 0 0.205 3.789 0.58 7.031 0.58 10.274 0 200.226 0.034 400.418-0.034 600.644 0 38.741-24.508 62.942-63.283 62.976-128.102 0-256.239 0.034-384.375 0-43.349 0-66.492-23.313-66.492-66.833 0-198.212 0-396.425 0-594.603-0.068-3.994-0.068-7.885-0.068-12.459zM768.614 159.437c-171.452 0-342.289 0-513.126 0-0.239-2.219-0.478-3.55-0.478-4.915 0-32.017-0.273-64.034 0.068-96.051 0.375-34.953 25.327-59.733 60.279-59.767 130.765-0.102 261.53-0.137 392.294 0 36.898 0.034 61.269 24.713 61.508 61.713 0.171 30.037 0.068 60.041 0.034 90.078-0.068 2.867-0.41 5.769-0.58 8.943zM525.926 126.771c20.617 0.239 47.241-26.249 47.411-47.104 0.171-20.651-26.249-47.241-47.138-47.445-20.617-0.171-47.309 26.351-47.411 47.104s26.214 47.206 47.138 47.445zM525.995 62.874c5.598-0.034 18.637 12.049 16.213 16.282-3.755 6.554-10.513 15.701-16.077 15.735-5.495 0.068-12.356-9.045-16.213-15.531-2.458-4.164 10.513-16.418 16.077-16.486z" />
<glyph unicode="&#xe919;" glyph-name="mail" d="M512.649 863.744c126.532 0 253.030 0 379.529 0 71.031 0 131.755-60.382 131.789-131.311 0.068-189.611 0.034-379.221 0-568.832-0.034-70.963-60.587-131.55-131.584-131.55-253.679-0.068-507.358-0.068-761.037 0-70.485 0-131.209 60.484-131.243 130.799-0.102 190.327-0.137 380.621-0.034 570.88 0.034 63.044 51.405 122.027 114.176 127.966 35.089 3.311 70.622 1.946 105.984 2.014 97.485 0.239 194.935 0.068 292.42 0.034 0 0.034 0 0.034 0 0zM960.819 616.687c-5.257-2.97-8.738-4.847-12.083-6.861-142.404-85.436-284.877-170.803-427.11-256.546-7.407-4.471-12.39-4.13-19.627 0.239-142.848 86.016-285.867 171.725-428.851 257.434-2.901 1.741-6.007 3.14-10.547 5.461 0-5.12 0-8.090 0-11.025 0-149.197-0.034-298.394 0.034-447.59 0-38.844 24.405-63.181 63.113-63.181 257.331 0 514.628 0 771.959 0.034 39.424 0 63.59 24.166 63.59 63.59 0.034 149.197 0.034 298.394 0.034 447.59 0.034 2.97-0.273 5.905-0.512 10.854zM512 801.178c-127.454 0-254.942 0.034-382.396-0.034-44.305 0-66.833-22.767-66.97-67.311-0.034-11.674 0.478-23.381-0.171-35.021-0.375-7.066 2.458-10.786 8.226-14.234 143.872-86.153 287.71-172.407 431.377-258.867 7.236-4.369 12.629-4.506 19.9-0.068 54.135 32.905 108.51 65.434 162.85 97.997 88.883 53.35 177.801 106.735 266.854 159.846 7.168 4.267 10.377 8.806 9.933 17.34-0.751 14.302 0.034 28.706-0.341 43.042-0.683 26.522-17.51 48.162-43.179 54.75-7.612 1.946-15.77 2.423-23.689 2.458-127.454 0.137-254.942 0.102-382.396 0.102z" />
<glyph unicode="&#xe91a;" glyph-name="planet" d="M1024 447.795c1.229-279.996-227.533-509.474-510.157-511.761-281.19-2.219-511.42 226.645-513.843 510.805-2.355 280.576 228.557 512.239 511.556 513.161 281.771 0.887 511.215-228.42 512.444-512.205zM668.433 343.108c9.114 59.699 8.533 176.606-0.683 209.852-104.141 0-207.804 0-312.457 0-8.431-69.632-8.363-140.425-0.102-209.852 104.755 0 208.452 0 313.242 0zM365.022 275.797c17.271-77.926 36.181-153.361 86.835-216.201 4.301-5.325 9.421-10.103 14.643-14.575 30.857-26.351 60.689-27.238 90.965 0.41 13.414 12.22 26.419 26.522 34.577 42.462 16.828 32.973 31.881 67.106 44.612 101.82 10.001 27.341 15.462 56.286 23.347 86.050-99.635 6.11-196.369 6.144-294.98 0.034zM656.623 618.428c0.785 4.471 1.229 5.427 1.058 6.246-1.604 8.090-3.14 16.247-4.983 24.269-13.073 55.603-29.73 109.909-59.87 159.027-14.78 24.132-32.017 46.080-58.982 58.027-14.541 6.417-28.979 6.451-43.588-0.034-26.453-11.776-43.588-33.143-58.3-56.798-24.713-39.731-40.482-83.217-52.429-128.205-5.222-19.695-9.557-39.629-15.019-62.532 99.294 0 195.618 0 292.113 0zM287.061 334.916c0 76.527 0 150.665 0 226.27-55.467 6.963-113.835 12.834-170.155 34.884-36.284-99.533-36.489-197.427 0.137-296.243 56.832 22.391 114.893 27.989 170.018 35.089zM734.993 561.050c1.809-39.424 4.847-76.561 4.813-113.664 0-37.001-3.106-74.035-4.881-112.162 57.481-7.373 115.883-13.21 170.769-34.714 37.478 67.789 36.796 243.746-0.751 294.844-54.75-21.333-112.777-27.204-169.95-34.304zM300.51 625.903c15.053 78.336 37.137 152.951 80.316 223.573-104.858-37.171-182.34-101.035-237.158-195.482 52.224-17.101 103.97-22.665 156.843-28.092zM723.866 270.199c-15.667-78.302-37.069-153.225-80.794-223.778 104.789 37.035 182.477 100.966 237.363 195.652-52.156 17.203-103.902 22.63-156.57 28.126zM880.435 650.377c-33.587 80.213-171.998 193.604-235.383 195.823 42.121-67.618 63.147-142.814 79.394-222.549 52.395 8.977 103.219 17.681 155.989 26.726zM380.655 46.49c-6.178 10.752-10.684 18.193-14.848 25.873-31.573 58.231-50.074 120.969-62.771 185.549-2.014 10.342-5.564 12.629-15.223 11.162-24.474-3.686-49.22-5.803-73.591-10.069-23.211-4.062-46.114-10.035-71.509-15.701 56.013-95.949 133.461-159.915 237.943-196.813z" />
<glyph unicode="&#xe91b;" glyph-name="arrow_up" d="M585.148 9.148v702.157l168.96-168.96c14.404-14.404 31.607-21.197 50.483-21.197 36.011 0 73.148 29.73 73.148 73.148 0 19.422-7.066 36.352-21.197 50.483l-291.021 291.021c-12.049 11.981-26.897 24.201-53.521 24.201s-39.492-10.206-52.941-23.62l-291.567-291.635c-14.131-14.097-21.197-31.027-21.197-50.483 0-43.452 37.137-73.148 73.148-73.148 18.876 0 36.079 6.793 50.483 21.197l168.96 168.96v-702.191c-0.034-40.277 32.768-73.079 73.114-73.079 40.38 0 73.148 32.802 73.148 73.148z" />
<glyph unicode="&#xe91c;" glyph-name="goto" d="M1024 448l-384 320v-192c-288.017 0-512-64-640-384 192 160.017 384 192 640 128v-192l384 320z" />
<glyph unicode="&#xe91d;" glyph-name="apartment" d="M34.065 755.746c-5.12 0-8.533 0.137-11.947 0-8.772-0.444-16.998 0.956-20.753 10.035-3.925 9.421 1.161 16.213 7.782 22.699 18.261 17.818 36.215 36.011 54.272 54.033 35.908 35.772 71.885 71.475 107.588 107.52 6.554 6.622 13.653 9.455 22.903 9.455 211.797-0.137 423.595-0.137 635.392 0 9.216 0 16.35-2.628 22.972-9.25 54.545-54.75 109.261-109.261 164.045-163.738 5.734-5.7 9.899-11.537 6.417-20.036-3.584-8.704-10.684-10.923-19.251-10.65-4.096 0.137-8.192 0-14.029 0 0-5.734 0-10.752 0-15.77 0-259.755 0-519.475 0-779.23 0-19.593-4.71-24.269-24.439-24.269-302.182 0-604.331 0-906.513 0-19.797 0-24.405 4.608-24.405 24.201 0 258.731 0 517.427 0 776.124-0.034 5.803-0.034 11.605-0.034 18.876zM957.065 686.797c-297.438 0-593.476 0-890.027 0-0.239-2.628-0.614-4.608-0.614-6.622-0.034-97.246 0.102-194.526-0.239-291.772-0.034-10.069 5.018-10.001 12.22-10.001 289.007 0.068 578.014 0.137 867.021-0.068 8.806 0 11.947 2.014 11.878 11.401-0.41 71.407-0.239 142.814-0.239 214.187 0 27.238 0 54.443 0 82.876zM957.099 345.19c-297.677 0-593.715 0-890.129 0-0.239-3.209-0.546-5.53-0.546-7.919-0.034-96.87 0.068-193.809-0.205-290.748-0.034-8.397 3.686-9.455 10.615-9.455 96.222 0.137 192.444 0.068 288.7 0.137 3.004 0 6.007 0.546 10.103 0.853 0 4.745 0 8.806 0 12.868 0 79.326 0 158.583 0 237.943 0 16.009 5.12 21.265 20.753 21.333 76.561 0 153.122 0 229.683 0 17.067 0 21.743-4.949 21.743-22.323 0-79.326 0.171-158.652-0.205-238.012-0.034-9.66 2.15-13.005 12.39-12.937 94.822 0.41 189.713 0.341 284.535 0 9.933 0 12.8 2.731 12.732 12.732-0.375 87.279-0.205 174.524-0.205 261.803 0.034 10.991 0.034 21.948 0.034 33.724zM56.354 788.89c304.64 0 606.276 0 909.961 0-3.038 3.686-4.745 6.076-6.758 8.124-41.438 41.438-82.842 82.978-124.587 124.075-3.447 3.345-9.557 5.461-14.473 5.53-31.027 0.512-62.054 0.307-93.116 0.307-173.773 0-347.511-0.034-521.284 0.171-8.602 0-14.746-2.526-20.821-8.704-39.492-39.936-79.394-79.531-119.159-119.228-2.628-2.662-5.154-5.427-9.762-10.274zM408.747 277.197c-0.273-3.277-0.614-5.257-0.614-7.27-0.034-97.212 0.068-194.389-0.205-291.601 0-9.523 5.018-9.455 11.742-9.455 60.996 0.068 121.993 0.273 182.989-0.068 9.591-0.068 13.005 2.185 12.971 12.527-0.375 94.72-0.239 189.542-0.239 284.262 0 3.721-0.307 7.407-0.512 11.605-69.018 0-137.079 0-206.131 0zM66.355 755.098c0-5.359 0-10.069 0-14.814-0.034-20.412-0.034-20.446 20.105-20.446 252.826 0 505.651 0 758.477 0 34.133 0 68.301-0.102 102.434 0.273 3.209 0.034 9.011 2.765 9.182 4.642 0.887 10.069 0.444 20.309 0.444 30.345-297.677 0-593.476 0-890.641 0zM66.355 4.13c0-7.543 0-13.722 0-19.866 0-15.326 0-15.326 14.95-15.326 94.379 0 188.757 0 283.102 0 3.345 0 6.69 0.41 10.445 0.683 0 12.015 0 23.142 0 34.543-102.844-0.034-204.971-0.034-308.497-0.034zM957.065 4.062c-103.799 0-205.926 0-308.395 0 0-11.742 0-22.801 0-35.191 5.257 0 9.66 0 14.063 0 58.914 0 117.794 0 176.674 0.068 35.84 0 71.68-0.068 107.452 0 4.574 0.068 10.308-1.263 10.206 6.451-0.102 9.284 0 18.466 0 28.672zM511.044 449.126c-32.734 0-65.468 0.102-98.236-0.068-9.114-0.034-16.691 1.98-19.012 11.878-2.355 10.069 2.56 15.94 11.571 20.241 2.731 1.331 4.813 6.895 4.847 10.547 0.307 45.5 0.205 90.999 0.205 136.499 0 19.934 3.413 23.381 23.381 23.381 53.077 0 106.155 0.034 159.232 0 15.428-0.034 20.105-4.881 20.105-20.514 0.034-46.524 0.034-93.082-0.068-139.605-0.034-5.564 0.512-9.557 7.031-11.674 8.329-2.697 11.401-9.626 9.66-18.125-1.775-8.704-7.612-12.527-16.35-12.493-34.133 0-68.267-0.034-102.366-0.068zM528.35 482.27c17.852 0 34.577 0 51.337 0 0 23.177 0 45.67 0 67.721-17.681 0-34.304 0-51.337 0 0-22.869 0-44.817 0-67.721zM494.831 482.099c0 23.484 0 45.67 0 68.164-17.476 0-34.167 0-51.063 0 0-23.177 0-45.636 0-68.164 17.34 0 33.792 0 51.063 0zM495.548 618.564c-18.261 0-34.918 0-51.917 0 0-11.81 0-22.938 0-35.191 15.804 0 30.891-0.239 45.943 0.273 2.082 0.068 5.53 3.891 5.7 6.178 0.649 9.182 0.273 18.466 0.273 28.74zM527.974 618.667c0-10.513-0.375-19.797 0.273-29.013 0.171-2.253 3.721-5.973 5.837-6.042 13.414-0.58 26.829-0.478 40.277-0.102 2.082 0.034 5.769 2.389 5.837 3.789 0.512 10.479 0.273 20.992 0.273 31.369-18.227 0-34.645 0-52.497 0zM784.623 449.126c-32.768 0-65.502 0.102-98.236-0.068-9.114-0.034-16.794 1.775-19.046 11.742-2.15 9.796 1.946 16.247 11.401 20.378 2.697 1.161 4.779 6.861 4.813 10.479 0.307 45.5 0.171 90.999 0.171 136.499 0 19.695 3.789 23.484 23.484 23.484 53.111 0 106.155 0 159.266-0.034 14.95 0 20.036-4.642 20.105-19.524 0.205-45.841 0.205-91.682 0.034-137.523-0.034-7.27 0.034-12.8 8.875-15.77 6.827-2.321 10.001-9.318 7.987-17.067-2.15-8.363-7.612-12.629-16.452-12.595-34.167 0.068-68.301 0.034-102.4 0zM853.402 482.133c0 23.415 0 45.568 0 67.823-17.681 0-34.577 0-51.439 0 0-23.108 0-45.227 0-67.823 17.476 0 34.133 0 51.439 0zM716.493 482.543c17.237 0 34.372 0 51.712 0 0 22.801 0 44.954 0 67.55-17.545 0-34.406 0-51.712 0 0-22.733 0-44.646 0-67.55zM767.59 618.53c-16.964 0-33.621 0-50.688 0 0-11.81 0-22.903 0-35.26 7.578 0 14.37 0 21.163 0 33.314 0 33.314 0 30.379 33.382-0.034 0.307-0.273 0.58-0.853 1.877zM854.050 618.257c-18.193 0-35.089 0-52.838 0 0-9.865-0.58-18.807 0.341-27.614 0.273-2.628 4.506-6.793 7.1-6.929 12.663-0.717 25.429-0.171 38.161-0.375 5.257-0.068 7.407 2.014 7.27 7.305-0.171 8.875-0.034 17.818-0.034 27.614zM238.592 449.092c-33.109 0-66.185 0.205-99.26-0.102-9.865-0.068-17.271 2.799-19.354 12.902-1.98 9.523 3.209 15.087 11.708 19.217 2.731 1.331 4.779 6.895 4.813 10.547 0.341 45.5 0.205 90.999 0.341 136.465 0.068 19.934 3.618 23.45 23.484 23.484 53.077 0.034 106.155 0.034 159.232 0 15.394 0 20.105-4.847 20.139-20.48 0.034-46.592 0.102-93.116 0-139.639 0-5.495 0.171-9.694 6.827-11.776 9.182-2.833 11.537-10.479 9.489-19.115-1.911-8.090-7.885-11.537-16.111-11.537-33.758 0.034-67.55 0-101.308 0.034zM306.654 482.099c0 23.415 0 45.568 0 67.925-17.579 0-34.475 0-51.337 0 0-23.074 0-45.227 0-67.925 17.34 0 33.997 0 51.337 0zM221.559 482.202c0 23.177 0 45.329 0 67.925-17.613 0-34.543 0-51.61 0 0-22.972 0-45.124 0-67.925 17.306 0 33.963 0 51.61 0zM169.882 619.145c-0.239-4.062-0.444-6.417-0.478-8.841-0.444-26.931-0.41-27.307 26.692-26.931 31.437 0.478 25.498-6.417 26.18 27.648 0 0.717 0.239 1.638-0.102 2.048-1.98 2.116-4.062 5.734-6.178 5.803-15.087 0.512-30.174 0.273-46.114 0.273zM305.903 618.462c-16.93 0-33.587 0-51.268 0 0-4.779 0-8.841 0-12.902-0.102-22.153-0.102-22.153 22.118-22.255 33.519-0.171 33.519-0.171 30.106 33.451-0.034 0.307-0.307 0.58-0.956 1.707zM683.759 141.585c0 49.254 0 97.86 0 146.466 0 17.988 4.198 22.118 22.562 22.118 51.712 0 103.424 0 155.136 0.068 22.016 0.068 25.259-3.277 25.225-24.883-0.102-44.817 0.034-89.6-0.171-134.417-0.034-6.519 1.161-10.615 8.158-13.073 7.134-2.458 10.479-9.216 9.011-16.725-1.638-8.192-6.793-13.414-15.838-13.414-68.233 0-136.499 0-204.766 0-8.192 0-14.063 3.584-15.804 11.878-1.707 8.192 0.683 15.053 8.977 18.739 2.219 1.058 4.437 1.911 7.509 3.243zM716.834 208.93c0-23.484 0-45.67 0-67.925 17.613 0 34.509 0 51.302 0 0 23.142 0 45.261 0 67.925-17.34 0-33.963 0-51.302 0zM801.655 140.663c17.852 0 34.543 0 51.746 0 0 23.006 0 45.397 0 67.789-17.681 0-34.543 0-51.746 0 0-22.869 0-44.715 0-67.789zM767.454 277.129c-16.896 0-33.553 0-51.337 0 0-4.745 0-8.738 0-12.8-0.034-22.391-0.034-22.391 22.084-22.391 33.348 0 33.348 0 30.208 33.417 0 0.307-0.273 0.58-0.956 1.775zM801.348 277.402c0-10.547-0.341-20.070 0.239-29.594 0.137-2.014 3.516-5.461 5.461-5.53 13.722-0.478 27.511-0.41 41.267-0.068 1.946 0.068 5.325 2.731 5.427 4.335 0.512 10.138 0.239 20.343 0.239 30.857-17.954 0-34.372 0-52.634 0zM339.729 141.483c2.458-0.922 4.028-1.604 5.632-2.185 9.25-3.482 12.8-10.274 10.718-19.593-1.946-8.738-8.294-12.015-16.862-11.947-16.213 0.068-32.393-0.068-48.606-0.068-49.971 0.068-99.977 0.205-149.948 0-9.899-0.068-18.193 1.673-20.617 12.595-2.287 10.206 3.618 15.599 12.254 19.797 2.492 1.263 4.267 6.451 4.301 9.865 0.273 43.793 0.137 87.518 0.137 131.345 0 3.789-0.102 7.612 0.068 11.401 0.614 12.322 5.564 17.408 17.92 17.545 28.604 0.137 57.207 0.068 85.811 0.068 26.556 0 53.077 0 79.633-0.068 14.131 0 19.422-5.052 19.456-19.081 0.102-45.534 0.034-90.999 0.068-136.533 0.034-4.164 0.034-8.226 0.034-13.141zM169.677 141.005c17.852 0 34.782 0 52.497 0 0 21.402 0.102 41.95-0.171 62.464-0.068 2.014-2.628 5.598-4.062 5.598-15.974 0.478-31.983 0.273-48.265 0.273 0-23.484 0-45.397 0-68.335zM306.722 208.657c-17.988 0-34.645 0-51.166 0 0-23.211 0-45.67 0-67.789 17.647 0 34.27 0 51.166 0 0 23.006 0 45.124 0 67.789zM169.335 277.197c0-10.138-0.546-19.081 0.341-27.921 0.273-2.594 4.437-6.724 7.031-6.861 12.663-0.717 25.395-0.614 38.093-0.068 2.492 0.068 6.827 3.072 6.997 4.949 0.717 9.796 0.307 19.661 0.307 29.935-18.057-0.034-34.714-0.034-52.77-0.034zM254.635 277.197c0-10.274-0.375-19.217 0.239-28.058 0.171-2.458 3.277-6.588 5.154-6.656 15.326-0.546 30.686-0.341 46.558-0.341 0 12.459 0 23.586 0 35.055-17.374 0-34.031 0-51.951 0zM477.662 123.665c-0.068-8.806-8.533-17.067-17.476-16.998-9.011 0.068-16.691 8.26-16.452 17.545 0.205 9.079 7.339 16.077 16.452 16.145 9.216 0.034 17.545-7.885 17.476-16.691z" />
<glyph unicode="&#xe91e;" glyph-name="house" d="M922.317 516.642c0-121.31 0-240.913 0-359.97 10.786-0.478 20.924-0.205 30.822-1.468 37.99-4.949 68.574-38.4 70.485-76.698 0.341-6.793 0.41-13.585 0.341-20.378-0.171-13.926-5.052-19.081-19.046-19.217-25.088-0.239-50.21-0.171-75.332-0.171-256.58 0-513.092 0-769.673 0-43.11 0-86.187-0.102-129.297 0.068-28.604 0.102-30.959 2.731-30.583 31.744 0.512 40.209 24.986 74.854 63.795 82.364 18.978 3.652 26.044 17.101 37.137 27.853 1.809 1.741 2.116 5.632 2.116 8.533 0.102 106.189 0.102 212.446 0.102 318.635 0 2.321-0.444 4.642-0.853 8.636-14.336 0-28.433-0.034-42.53 0-20.719 0.068-25.327 4.608-25.327 24.849 0 18.671 0.273 37.342-0.102 56.013-0.205 10.103 3.652 16.35 13.039 20.514 151.381 67.038 302.694 134.178 453.939 201.557 7.851 3.482 14.404 3.413 22.153-0.068 77.585-34.679 155.273-69.052 232.96-103.526 3.618-1.604 7.373-3.038 13.039-5.393 0 14.746 0.205 28.058-0.239 41.37-0.034 1.673-3.038 3.959-5.12 4.813-7.509 2.97-11.298 8.090-11.298 16.247 0.034 22.050-0.205 44.1 0 66.15 0.102 11.742 5.598 17.783 17.476 17.886 44.476 0.341 88.917 0.341 133.359 0 12.083-0.102 17.818-6.69 17.886-18.671 0.102-21.367-0.137-42.769 0.068-64.137 0.102-8.055-2.833-14.507-10.411-16.759-5.734-1.707-6.349-4.642-6.315-9.489 0.102-30.208 0.239-60.416-0.137-90.59-0.102-6.485 3.106-8.875 8.090-11.059 21.094-9.216 41.984-18.876 63.249-27.785 9.694-4.062 14.37-10.547 14.302-20.958-0.137-20.036 0.137-40.038-0.068-60.075-0.171-14.746-6.417-20.685-21.436-20.821-15.223-0.137-30.413 0-46.592 0zM376.525 133.53c0 4.096 0 9.489 0 14.916 0 103.492 0 206.985-0.034 310.511 0 17.306 4.881 22.118 22.391 22.118 74.991 0 149.982-0.034 224.973-0.034 20.412 0 24.713-4.335 24.713-25.19 0.034-104.175 0-208.384 0-312.559 0-3.857 0-7.748 0-11.571 1.024-0.375 2.048-0.717 3.038-1.058 2.56 3.174 5.564 6.076 7.68 9.523 15.804 26.112 43.486 38.4 73.011 31.607 6.451-1.468 10.342 0.102 14.95 4.813 36.523 37.478 91.546 41.882 133.12 11.025 2.321-1.741 4.813-3.277 8.397-5.7 0.375 4.437 0.751 7.339 0.751 10.24 0.068 117.726-0.034 235.486 0.239 353.28 0.034 8.431-2.594 12.425-10.342 15.77-117.214 50.551-234.291 101.342-351.095 152.713-11.639 5.12-20.992 4.745-32.29-0.205-117.214-51.302-234.633-102.263-352.017-153.088-6.076-2.628-8.704-5.564-8.67-12.663 0.239-111.991 0.137-223.983 0.171-335.974 0-2.935 0.341-5.905 0.546-8.704 1.399-0.205 2.15-0.478 2.731-0.307 41.779 11.981 77.449 1.877 107.657-29.116 1.98-2.048 6.724-2.765 9.796-2.15 30.003 6.212 53.965-3.004 72.465-27.307 1.673-2.185 4.267-4.676 6.758-5.052 13.073-2.219 26.351-3.789 41.062-5.837zM614.946 448.99c-5.495 0-10.172 0-14.882 0-59.665 0-119.33-0.205-179.029 0.205-9.694 0.068-12.663-2.594-12.629-12.493 0.341-118.34 0.239-236.715 0.273-355.055 0-2.97 0.41-5.939 0.649-9.387 68.847 0 137.045 0 205.585 0 0.034 125.679 0.034 250.607 0.034 376.73zM957.269 550.229c0 10.581-0.683 20.070 0.205 29.423 0.819 9.045-2.97 12.902-10.923 16.418-141.483 62.566-282.795 125.372-424.038 188.348-7.134 3.174-12.902 3.345-20.070 0.137-140.356-62.566-280.747-124.962-421.342-186.948-10.923-4.813-15.189-10.308-14.711-22.426 1.024-25.702 0.307-25.395 25.975-25.566 8.363-0.034 12.049 2.389 10.889 10.889-1.775 13.244 4.676 19.968 16.657 25.122 127.078 54.852 253.952 110.217 380.826 165.547 8.055 3.516 15.326 3.277 23.381-0.239 65.399-28.604 130.935-56.934 196.437-85.402 61.781-26.829 123.46-53.794 185.344-80.384 10.547-4.506 17.101-10.513 15.804-22.767-0.444-3.857-0.068-7.817-0.068-12.117 12.425-0.034 23.211-0.034 35.635-0.034zM991.607 72.124c-0.341 3.925-0.239 7.27-0.956 10.445-7.885 34.782-44.851 51.644-76.22 34.884-15.497-8.26-23.040-5.188-29.286 11.162-9.557 24.951-27.204 41.199-53.897 45.534-28.877 4.676-51.78-6.042-68.471-29.867-9.318-13.312-14.268-14.677-28.74-7.27-18.261 9.284-39.936 2.492-47.753-16.316-3.755-8.977-9.25-13.995-17.886-17.715-13.961-5.973-20.958-18.944-18.057-30.891 113.391 0.034 226.85 0.034 341.265 0.034zM375.774 72.226c-0.512 23.723-22.050 39.424-44.373 33.109-14.234-4.028-20.207-1.263-25.463 11.776-9.045 22.46-29.525 29.969-51.234 18.842-11.401-5.871-18.227-3.857-25.975 6.588-4.608 6.212-9.421 12.595-15.36 17.442-34.372 27.853-84.036 17.101-104.482-22.733-5.154-10.035-11.605-15.36-23.142-13.585-2.97 0.478-6.11 0-9.148-0.341-24.508-2.731-45.329-27.819-42.052-51.063 113.732-0.034 227.465-0.034 341.231-0.034zM871.663 664.951c0 30.071 0.137 58.129-0.375 86.153-0.034 1.809-4.915 4.983-7.578 5.052-17.954 0.444-35.977 0.068-53.965 0.341-6.417 0.068-8.294-2.765-8.090-8.636 0.273-7.1 1.263-14.473-0.068-21.333-4.813-24.303 5.325-37.342 28.57-43.895 13.79-3.823 26.59-11.162 41.506-17.681zM785.033 824.081c0-10.206 0.375-18.637-0.102-27.034-0.375-6.793 2.389-8.704 8.875-8.602 23.006 0.273 46.046 0.068 69.052 0.137 28.262 0.102 28.092 0.137 26.726 28.297-0.273 5.973-2.628 7.407-7.987 7.339-18.637-0.205-37.239-0.102-55.876-0.102-13.107-0.034-26.214-0.034-40.687-0.034zM340.924 311.467c1.946-0.717 3.174-1.126 4.369-1.536 8.909-3.072 13.517-9.318 11.878-18.637s-8.158-13.312-17.579-13.278c-36.966 0.068-73.899 0-110.865 0-18.637-0.034-37.308 0.137-55.945-0.034-9.25-0.068-16.145 3.277-17.988 12.732-1.809 9.25 2.56 15.189 11.093 19.319 2.662 1.297 4.847 6.451 4.881 9.899 0.307 45.773 0.205 91.546 0.171 137.284 0 18.944 4.949 23.825 24.098 23.791 41.37 0 82.705 0.034 124.075-0.034 16.282 0 21.743-5.632 21.743-22.118 0.034-45.431 0-90.863 0-136.294 0.068-3.584 0.068-7.305 0.068-11.093zM307.678 379.221c-35.123 0-69.12 0-103.868 0 0-21.129-0.205-41.472 0.239-61.815 0.068-2.458 3.686-6.963 5.734-6.997 30.549-0.444 61.065-0.41 91.614-0.034 2.116 0.034 5.973 3.652 6.007 5.666 0.444 20.958 0.273 41.882 0.273 63.181zM307.746 412.979c0 10.103-0.41 18.569 0.102 26.965 0.478 7.305-2.458 9.284-9.387 9.182-23.040-0.341-46.148-0.137-69.188-0.102-26.419 0-26.112 0.034-25.668-26.658 0.102-7.885 3.174-9.728 10.274-9.626 23.074 0.341 46.114 0.239 69.188 0.273 7.68-0.034 15.428-0.034 24.678-0.034zM768.307 278.050c-27.102 0-54.238 0.171-81.374-0.102-9.079-0.102-16.247 2.253-18.978 11.605-2.799 9.421 0.99 14.882 11.537 20.651 2.492 1.365 4.335 6.212 4.369 9.421 0.273 46.455 0.205 92.945 0.239 139.366 0 16.964 4.915 21.982 21.47 21.982 42.394 0.034 84.753 0.034 127.181 0 15.053 0 20.309-4.813 20.378-19.9 0.205-46.114 0.205-92.228 0.102-138.342-0.034-6.656-0.034-11.947 8.226-14.643 7.509-2.458 10.615-9.728 8.602-17.476-2.048-7.885-7.509-12.629-16.282-12.595-28.501 0.068-56.969 0.034-85.47 0.034v0zM819.917 310.101c0 23.996 0 46.455 0 69.086-34.679 0-68.608 0-103.492 0 0-21.402-0.205-41.984 0.307-62.566 0.068-2.219 4.335-6.212 6.69-6.246 31.778-0.41 63.556-0.273 96.495-0.273zM820.053 448.956c-29.286 0-57.378 0.102-85.436-0.034-20.719-0.102-18.227 2.697-18.261-18.466-0.034-18.057-3.311-18.091 16.998-17.442 3.072 0.102 6.11-0.171 9.182-0.171 25.668 0 51.337 0 77.517 0 0 12.459 0 23.484 0 36.113zM461.414 243.302c-9.25-0.171-17.135 7.066-17.51 16.043-0.375 8.943 8.26 17.886 17.203 17.818 8.841-0.034 16.555-7.885 16.657-16.998 0.102-9.421-6.997-16.691-16.35-16.862zM818.62 148.275c9.967-3.959 19.661-6.827 28.399-11.503 8.226-4.437 10.308-14.609 6.11-21.982-4.369-7.612-13.722-10.615-22.050-5.734-8.26 4.847-15.36 4.983-23.654 0.034-8.021-4.813-15.155-1.365-20.207 5.803-4.983 7.1-3.686 16.862 4.028 21.47 8.226 4.881 17.579 7.748 27.375 11.913zM169.677 148.548c9.694-4.54 20.378-8.533 29.969-14.336 7.1-4.335 7.919-15.326 2.833-21.811-5.461-6.929-12.937-9.421-20.617-4.608-8.158 5.12-15.223 6.895-24.474 2.082-7.953-4.198-17.135 0.068-20.685 7.509-3.721 7.748-1.638 16.759 6.485 21.026 7.646 4.028 16.213 6.281 26.487 10.138z" />
<glyph unicode="&#xe91f;" glyph-name="office" d="M511.044-63.966c-149.811 0-299.588 0-449.399 0-19.831 0-25.020 5.291-25.020 25.498 0 211.968-0.034 423.902 0.102 635.87 0 6.622-1.809 10.923-6.997 15.531-18.671 16.384-25.702 37.444-22.801 62.123 3.959 33.655 7.509 67.379 11.264 101.035 4.471 40.073 9.045 80.145 13.517 120.218 0.58 5.052 0.546 10.172 1.399 15.189 5.018 29.867 25.805 47.684 56.252 48.503 1.707 0.034 3.413 0 5.086 0 278.528 0 557.090 0 835.618 0 35.601 0 56.388-17.613 61.167-52.122 1.911-13.756 2.97-27.648 4.506-41.438 5.222-47.172 10.547-94.31 15.804-141.483 2.15-19.217 5.188-38.366 6.11-57.617 0.956-20.924-6.281-39.697-22.391-53.521-6.281-5.359-7.885-10.65-7.851-18.227 0.137-211.285 0.102-422.571 0.102-633.856 0-20.412-5.393-25.737-26.010-25.737-150.153 0.034-300.305 0.034-450.458 0.034zM676.932 619.179c-45.773-32.7-67.482-32.631-110.421 0.683-14.95-15.258-32.734-24.542-54.852-24.474-21.948 0.034-39.561 9.591-54.818 24.951-15.462-16.111-33.178-24.951-54.818-24.951-21.914 0-39.731 9.353-55.057 24.917-15.394-16.145-33.178-24.815-54.75-24.917-21.982-0.102-39.765 9.421-55.125 24.951-15.258-16.111-32.939-24.849-54.613-24.951-21.572-0.102-39.049 9.148-54.579 23.927-15.053-16.589-33.451-24.064-55.057-24.474 0-208.077 0-415.3 0-622.763 12.595 0 24.303 0 35.908 0 7.1 36.215 8.294 38.025 40.175 63.932 1.946 1.604 3.243 4.233 4.301 6.622 19.524 43.008 57.481 62.532 104.653 54.272 3.482-0.614 8.021 0.785 11.162 2.731 46.729 28.979 101.274 22.323 139.503-16.862 2.628-2.697 8.226-4.574 11.913-3.891 31.676 5.973 57.788-2.526 77.107-28.809 3.482-4.745 6.724-6.042 12.527-5.905 15.565 0.307 30.174-3.55 43.11-12.8 20.139-14.404 30.003-34.304 31.539-59.255 12.493 0 24.576 0 37.513 0 0.273 3.618 0.717 6.929 0.717 10.24 0 110.729 0 221.423-0.034 332.151 0 61.474 0 122.948 0.102 184.422 0.034 14.814 5.461 21.129 18.534 21.163 84.582 0.102 169.131 0.068 253.713 0 11.332 0 18.227-6.861 18.876-18.193 0.273-4.745 0.102-9.489 0.102-14.234-0.034-168.141-0.034-336.282-0.068-504.354 0-3.618 0-7.27 0-10.957 13.312 0 25.225 0 37.001 0 0 207.94 0 414.925 0 622.694-22.357-0.102-40.55 8.465-55.296 23.962-30.583-29.525-73.865-33.587-109.056 0.137-47.275-32.563-66.458-32.529-109.909 0.034zM878.046 485.615c-4.574 0-8.533 0-12.493 0-64.512 0-128.99 0.034-193.502 0-14.473 0-14.541-0.137-14.541-14.234-0.034-163.294-0.034-326.622 0-489.95 0-2.935 0.41-5.905 0.649-9.182 73.694 0 146.773 0 219.887 0 0 171.247 0 341.538 0 513.365zM146.603-27.887c133.871 0 267.776 0 401.749 0 0.273 25.293-23.211 42.325-47.65 35.328-14.95-4.301-21.060-1.331-26.726 13.039-9.148 23.177-32.017 31.812-54.033 20.378-13.858-7.202-20.446-5.53-29.047 7.305-25.668 38.4-73.045 46.114-108.783 17.135-8.363-6.758-16.009-8.192-26.112-4.574-30.208 10.854-61.918-4.779-71.441-35.362-3.072-9.933-8.090-16.111-17.852-20.105-14.507-5.939-21.743-18.91-20.105-33.143zM255.215 740.25c23.791 0 46.831-0.137 69.803 0.307 1.673 0.034 4.71 4.437 4.71 6.827 0.273 56.354 0.137 112.742 0.307 169.131 0 6.246-2.253 8.26-8.363 8.158-18.33-0.273-36.693-0.683-54.989 0.137-10.069 0.444-12.493-2.935-12.425-12.595 0.444-53.316 0.205-106.633 0.239-159.949 0.034-3.618 0.41-7.27 0.717-12.015zM365.193 924.092c0-61.884 0-122.436 0-183.057 25.122 0 49.357 0 73.83 0 0 61.44 0 122.027 0 183.057-24.883 0-48.879 0-73.83 0zM474.249 924.092c0-7.953 0-14.711 0-21.402 0-50.586 0.102-101.205-0.205-151.825-0.034-8.431 2.492-11.298 10.991-10.854 12.868 0.683 25.805 0.171 38.707 0.171 8.329 0 16.623 0 25.088 0 0 62.396 0 122.982 0 183.91-24.917 0-48.913 0-74.581 0zM658.603 740.659c0 61.269 0 122.129 0 183.023-25.122 0-49.323 0-73.626 0 0-61.44 0-121.993 0-183.023 24.781 0 48.777 0 73.626 0zM219.204 740.693c0 61.781 0 122.3 0 183.398-24.747 0-48.708 0-73.489 0 0-61.167 0-122.027 0-183.398 24.747 0 48.708 0 73.489 0zM695.125 924.16c0-61.235 0-122.231 0-183.33 24.678 0 48.606 0 72.841 0 0 61.406 0 122.163 0 183.33-24.542 0-48.162 0-72.841 0zM804.864 924.058c0-61.781 0-122.3 0-182.955 24.883 0 49.015 0 73.079 0 0 61.44 0 121.958 0 182.955-24.61 0-48.503 0-73.079 0zM49.664 741.069c20.753 0 40.107 0 59.631 0 0 61.406 0 121.924 0 183.33-8.704 0-16.828 0.614-24.815-0.171-8.602-0.819-14.131-6.246-15.94-14.78-1.161-5.632-1.604-11.366-2.253-17.101-3.789-33.587-7.646-67.174-11.366-100.796-1.843-16.657-3.482-33.382-5.257-50.483zM974.473 740.796c-2.185 19.524-4.301 37.956-6.383 56.422-4.13 36.966-8.090 73.967-12.39 110.933-0.99 8.567-6.451 14.711-14.916 15.838-8.499 1.161-17.271 0.239-26.078 0.239 0-61.815 0-122.334 0-183.467 19.797 0.034 38.912 0.034 59.767 0.034zM292.113 704.751c-10.172 0-20.343 0.41-30.481-0.273-2.492-0.171-6.69-3.789-6.758-5.939-0.307-12.151-0.58-24.405 0.853-36.454 2.219-18.261 17.34-31.232 35.226-31.881 17.442-0.614 33.69 10.752 37.001 28.365 2.321 12.459 1.263 25.566 2.048 38.332 0.41 6.485-2.56 8.124-8.431 7.919-9.83-0.307-19.661-0.068-29.457-0.068zM512.273 704.751c0 0.307-0.034 0.614-0.034 0.922-12.322-0.922-24.644-1.843-36.932-2.799-0.341-12.083-1.502-24.269-0.751-36.318 1.229-20.48 16.521-35.533 35.533-36.352 19.661-0.853 36.25 12.834 38.878 33.724 1.399 11.332 0.853 23.006 0.341 34.441-0.102 2.219-4.164 5.905-6.588 6.076-10.103 0.717-20.275 0.307-30.447 0.307zM584.294 704.717c0-14.643-0.785-27.546 0.205-40.277 1.468-19.217 17.783-33.894 36.523-34.27 19.456-0.375 35.499 13.517 37.581 33.792 1.161 11.366 0.887 22.972 0.512 34.441-0.068 2.15-3.618 5.973-5.632 6.007-22.63 0.478-45.227 0.307-69.188 0.307zM364.885 704.683c0-14.814-1.161-28.058 0.273-41.028 2.219-19.968 18.193-33.519 37.035-33.417 19.388 0.102 34.953 14.063 37.103 34.611 1.161 11.059 0.717 22.323 0.239 33.485-0.068 2.185-3.584 6.042-5.598 6.076-22.596 0.41-45.261 0.273-69.052 0.273zM145.306 704.102c0-13.38-0.614-25.941 0.137-38.4 1.161-19.49 15.701-34.133 34.133-35.465 18.773-1.365 36.762 11.605 39.39 30.857 1.911 13.892 0.375 28.228 0.375 43.008-24.576 0-48.503 0-74.035 0zM767.863 703.932c-24.508 0-48.674 0-73.557 0 0-13.995-0.785-27.238 0.171-40.346 1.297-17.681 16.794-32.017 34.338-33.28 17.783-1.297 36.284 10.684 38.639 27.785 2.048 14.882 0.41 30.242 0.41 45.841zM878.217 704c-25.225 0-49.118 0-74.103 0 0-4.745-0.034-8.738 0-12.732 0.102-9.83-0.649-19.763 0.546-29.491 2.116-17.886 18.807-31.676 36.796-31.607 17.783 0.068 34.85 13.517 36.489 30.652 1.331 14.063 0.273 28.331 0.273 43.179zM109.705 704.102c-4.164 0.273-7.168 0.614-10.138 0.614-16.316 0.068-32.631 0.307-48.913-0.341-2.185-0.068-5.666-4.437-6.042-7.202-1.57-10.718-2.662-21.572-2.935-32.393-0.478-18.466 13.722-33.587 31.573-34.509 18.295-0.956 34.816 11.981 36.215 29.969 1.161 14.131 0.239 28.433 0.239 43.861zM914.295 704.375c0-15.565-0.751-30.14 0.239-44.612 1.058-16.043 16.111-29.013 32.461-29.559 16.521-0.58 33.382 10.991 34.577 26.931 1.126 15.565-1.502 31.369-2.492 47.275-22.63-0.034-42.94-0.034-64.785-0.034zM345.907 155.955c-71.305 0-142.643-0.034-213.948 0-16.077 0-22.050 6.042-22.050 22.084 0 106.633 0 213.265 0 319.932 0 16.179 5.939 22.221 21.914 22.221 143.292 0 286.618-0.034 429.943-0.034 17.033 0 22.357-5.359 22.357-22.562 0.034-106.633 0.034-213.265 0-319.898 0-16.213-5.666-21.709-22.221-21.709-71.987 0-143.974 0-215.996-0.034v0zM348.092 485.683c-62.805 0-125.645 0-188.45 0-14.746 0-14.746 0-14.746-15.121 0.034-89.941 0.171-179.917-0.102-269.892 0-9.216 3.823-10.342 11.537-10.342 127.317 0.205 254.669 0.239 381.986 0 9.011 0 11.571 2.628 11.537 11.605-0.273 89.975-0.137 179.917-0.137 269.926 0.034 13.619 0 13.756-14.234 13.756-62.464 0.068-124.928 0.068-187.392 0.068zM731.273 246.682c0.068-9.899-7.953-18.33-17.681-18.5-9.421-0.171-18.295 8.329-18.603 17.852-0.341 9.66 8.943 19.217 18.466 19.149 9.489-0.102 17.749-8.704 17.818-18.5zM325.939 53.316c13.483-1.98 24.542-6.622 34.202-14.507 6.929-5.632 8.363-15.77 3.789-22.835-5.086-7.851-14.746-10.957-22.903-5.734-8.806 5.666-16.452 7.202-26.283 1.911-7.987-4.335-17.579 0.068-21.709 7.714-4.437 8.192-2.492 18.193 6.11 22.903 8.397 4.54 17.818 7.134 26.795 10.547zM313.685 341.163c-3.652-6.417-5.291-11.435-8.602-14.78-30.686-31.13-61.645-61.986-92.638-92.809-8.090-8.055-17.988-8.26-25.327-1.365-7.851 7.475-7.987 17.34 0.58 26.010 30.754 31.061 61.747 61.884 92.638 92.809 5.769 5.769 12.971 8.841 20.139 4.403 5.154-3.174 8.602-9.079 13.21-14.268zM295.253 432.094c-3.652-6.246-5.291-10.786-8.397-13.961-24.747-25.088-49.664-50.039-74.684-74.786-7.987-7.919-18.125-8.021-25.259-1.024-7.407 7.305-7.714 17.101 0.341 25.293 24.951 25.361 50.176 50.483 75.435 75.503 5.734 5.7 13.21 8.431 20.207 3.516 4.949-3.482 8.158-9.421 12.356-14.541zM388.13 449.638c3.482-2.901 10.206-5.939 12.254-10.889 2.082-4.983 1.673-13.517-1.434-17.681-6.997-9.387-15.906-17.613-24.883-25.327-6.246-5.393-14.063-4.983-20.685 0.102-6.588 4.983-10.581 13.278-5.598 19.524 9.318 11.776 20.924 21.743 31.778 32.256 1.297 1.161 3.891 0.956 8.567 2.014zM327.714 355.738c-9.694-0.171-17.647 7.168-18.022 16.623-0.41 10.069 10.069 21.129 20.275 21.402 9.728 0.273 17.374-6.997 17.749-16.725 0.375-10.718-9.387-21.094-20.002-21.299z" />
<glyph unicode="&#xe920;" glyph-name="playground" d="M0-8.055c5.495 9.933 14.029 12.595 24.986 12.015 13.926-0.751 27.887-0.205 42.803-0.205 0 250.743 0 500.531 0 751.514-4.813 0-9.387-0.171-13.926 0.034-8.602 0.375-15.565 3.209-18.261 12.493-2.423 8.533 1.809 14.097 8.090 18.637 61.235 44.476 122.436 88.951 183.74 133.291 9.557 6.895 14.643 6.349 26.18-2.048 57.993-42.086 115.951-84.207 173.943-126.327 2.97-2.15 7.031-3.618 8.738-6.519 3.038-5.018 6.554-10.957 6.417-16.418-0.205-7.066-6.042-11.674-13.517-12.493-6.212-0.683-12.459-0.887-19.422-1.331 0-68.13 0-135.68 0-204.151 7.987-0.546 15.94-0.375 23.62-1.707 26.317-4.506 42.667-22.596 44.066-49.084 0.751-14.302 0.171-28.672 0.205-43.008 0-14.234 0-28.467 0-43.895 6.485-1.229 15.531-2.697 24.439-4.676 33.382-7.407 62.191-23.347 86.357-47.445 80.794-80.486 161.621-160.973 242.176-241.766 29.389-29.457 64.478-45.158 105.916-47.002 13.756-0.649 19.046-6.076 19.217-19.9 0.137-12.015 0.853-24.098-0.171-36.011-0.956-10.752 3.277-13.073 12.971-12.459 12.288 0.751 24.678 0.273 37.001 0.137 10.889-0.102 18.193-6.349 18.466-15.462 0.307-9.455-7.168-16.247-18.671-16.247-86.733-0.102-173.431-0.102-260.164-0.102-236.817-0.034-473.6 0-710.383 0-3.652 0-7.373 0.375-10.991-0.068-10.752-1.229-18.807 2.389-23.825 12.151 0 2.662 0 5.359 0 8.055zM799.607 4.301c-10.411 9.421-19.456 17.067-27.819 25.395-48.708 48.435-97.212 97.041-145.818 145.51-32.836 32.734-65.024 66.082-98.85 97.724-32.495 30.481-72.329 41.916-117.35 39.117 0-102.912 0-205.039 0-307.78 129.57 0.034 258.458 0.034 389.837 0.034zM375.91 413.355c0 91.648 0 182.067 0 273.033-91.477 0-182.272 0-273.613 0 0-91.102 0-181.521 0-273.067 7.919 0 15.189-0.034 22.426 0 12.902 0 12.868 0 12.902 13.21 0.102 43.349-0.512 86.699 0.58 129.98 1.058 41.745 30.549 78.234 70.997 90.726 39.731 12.22 84.309-1.775 109.431-34.099 15.326-19.763 22.050-41.984 21.811-66.935-0.41-40.994-0.239-81.988 0.102-123.017 0.034-3.277 3.004-9.182 5.086-9.353 9.83-0.99 19.797-0.478 30.276-0.478zM171.554 487.151c-0.614 0-1.195 0-1.809 0 0-21.333 0.341-42.667-0.171-63.966-0.205-7.987 2.389-10.138 10.172-10.069 39.287 0.341 78.609 0.341 117.931 0 7.987-0.068 11.025 1.775 10.923 10.411-0.41 41.643-0.102 83.285-0.273 124.928 0 5.291-0.853 10.615-1.877 15.804-6.076 31.607-34.441 54.545-67.106 54.477-33.587-0.068-63.386-22.46-67.174-54.852-2.935-25.259-0.614-51.132-0.614-76.732zM409.702 345.429c5.222-0.239 9.762-0.649 14.336-0.683 52.941-0.375 97.826-19.593 135.236-57.037 79.428-79.497 158.993-158.891 238.626-238.217 32.154-32.017 71.509-46.455 116.599-45.67 2.799 0.068 7.851 2.697 7.953 4.403 0.751 10.479 0.41 21.026 0.41 31.232-4.062 0.956-6.588 1.809-9.25 2.15-42.633 5.803-77.585 25.737-107.725 56.047-78.575 78.985-157.696 157.389-236.407 236.237-22.528 22.562-48.674 39.39-80.213 43.588-25.566 3.413-51.78 1.911-77.722 2.492-0.512 0.034-1.024-0.717-1.877-1.365 0.034-10.581 0.034-21.436 0.034-33.178zM374.238 788.651c-2.833 2.628-4.062 4.062-5.598 5.154-41.199 30.003-82.534 59.836-123.563 90.044-5.359 3.891-8.602 2.423-13.073-0.819-40.346-29.457-80.794-58.778-121.207-88.166-2.014-1.434-3.755-3.277-7.066-6.212 90.761 0 179.507 0 270.507 0zM376.593 157.013c0 44.373 0 88.713 0 133.052 0 22.426 0.034 22.426-22.63 22.426-13.585-0.034-13.619-0.034-13.619-13.585 0-90.044 0-180.053 0-270.097 0-25.361-0.034-24.951 25.395-25.327 9.114-0.137 11.093 2.97 11.025 11.503-0.375 47.309-0.171 94.686-0.171 142.029zM101.615 312.013c0-5.427 0-9.728 0-13.995 0-90.658 0-181.35 0-272.043 0-22.323 0-22.323 22.869-22.289 13.073 0.034 13.141 0.034 13.141 13.175 0 94.345 0 188.689 0 283.034 0 3.891-0.512 7.817-0.785 12.117-11.81 0-22.699 0-35.226 0zM376.593 345.532c0 8.738-0.546 16.384 0.137 23.962 0.785 8.67-1.946 11.298-10.957 11.264-84.617-0.341-169.267-0.205-253.884-0.239-3.174 0-6.349-0.375-9.694-0.546 0-12.049 0-22.903 0-34.475 91.307 0.034 182.101 0.034 274.398 0.034zM102.229 720.555c2.662-0.307 4.267-0.649 5.871-0.649 86.665-0.034 173.329-0.034 259.994-0.034 0.99 0 2.321-0.375 2.935 0.102 1.98 1.604 5.12 3.447 5.222 5.359 0.546 9.523 0.239 19.081 0.239 29.252-92.126 0-182.886 0-274.295 0 0.034-11.435 0.034-22.255 0.034-34.031zM238.046 139.947c0 0.034 0 0.068 0 0.068 14.95 0 29.935 0.102 44.885 0 25.907-0.171 25.463-0.239 25.668 25.634 0.068 9.25-3.413 10.923-11.674 10.82-33.587-0.41-67.174-0.171-100.796-0.205-26.761-0.068-26.385-0.102-26.59-26.522-0.068-8.499 3.277-10.035 10.581-9.899 19.354 0.307 38.639 0.102 57.924 0.102zM239.172 71.817c14.643 0 29.252-0.034 43.895 0.034 25.566 0.137 25.259 0.171 25.566 25.702 0.068 8.192-2.321 10.923-10.684 10.82-33.929-0.444-67.823-0.239-101.751-0.171-27.034 0.034-26.795 0.102-26.556-26.658 0.034-7.339 2.253-10.001 9.694-9.865 19.9 0.375 39.868 0.137 59.836 0.137zM237.568 3.721c0 0 0-0.034 0-0.068 15.326 0 30.652 0 46.012 0 25.122 0 24.713 0.034 25.088 25.498 0.137 9.216-3.174 11.059-11.605 10.957-33.655-0.375-67.345-0.102-101.001-0.068-26.965 0-26.658 0-26.487-27.034 0.034-7.714 2.765-9.591 9.967-9.421 19.354 0.444 38.707 0.137 58.027 0.137zM238.217 208.213c7.305 0 14.643 0 21.982 0s14.677-0.034 22.016-0.034c26.658-0.034 26.351-0.034 26.453 26.214 0 8.021-2.56 10.24-10.342 10.138-34.304-0.341-68.642-0.102-102.98-0.102-25.805 0-25.498-0.034-25.771-25.463-0.068-8.192 2.185-11.162 10.65-10.923 19.319 0.512 38.673 0.171 57.993 0.171zM239.616 312.491c-15.326 0-30.618 0-45.978 0-23.996 0-23.586 0-24.098-24.201-0.171-9.148 2.492-12.117 11.674-12.049 39.287 0.41 78.575 0.375 117.897 0.102 7.612-0.068 10.069 2.731 9.421 10.001-0.478 5.257-0.444 10.684 0.034 15.974 0.717 7.714-1.843 10.581-10.001 10.342-19.661-0.546-39.322-0.205-58.948-0.171zM409.634 413.491c6.554 0 12.493-0.375 18.364 0.068 9.728 0.683 16.35 6.963 16.521 16.657 0.375 23.347 0.41 46.694-0.034 70.042-0.171 8.533-5.495 14.643-13.926 15.974-6.69 1.092-13.687 0.205-20.89 0.205-0.034-34.85-0.034-68.403-0.034-102.946z" />
<glyph unicode="&#xe921;" glyph-name="check2" d="M1014.613 685.807l-613.035-612.966c-12.493-12.527-32.905-12.527-45.329 0l-90.624 91.511c-12.459 12.493-32.905 33.109-45.295 45.773l-210.807 221.525c-6.178 6.281-9.523 15.019-9.523 23.381 0 8.055 3.345 16.145 9.523 22.255l92.365 83.319c6.246 6.417 14.609 9.523 22.869 9.523 8.090-0.068 16.213-3.277 22.391-9.523l209.135-213.333c12.425-12.663 32.836-12.663 45.329 0l477.252 475.853c12.459 12.595 32.802 12.595 45.193 0l90.522-91.546c12.561-12.493 12.561-33.143 0.034-45.773z" />
<glyph unicode="&#xe922;" glyph-name="pdf_icon" d="M510.908 510.601h-23.484v-124.962h27.307c22.699 0 40.141 2.662 52.361 14.165 12.117 11.435 18.193 26.453 18.193 48.333s-6.076 35.874-18.193 47.65c-12.22 11.708-30.925 14.814-56.183 14.814zM351.471 504.832c-7.748 5.427-19.797 5.769-36.113 5.769h-27.955v-74.957h33.041c16.486 0 27.75 5.803 33.724 12.493 5.939 6.69 8.875 16.452 8.875 29.321 0 12.8-3.789 21.948-11.571 27.375zM962.389 685.602h-899.925c-34.509 0-62.498-27.989-62.498-62.498v-349.935c0-34.577 27.989-62.532 62.498-62.532h899.959c34.543 0 62.464 27.955 62.464 62.532v349.935c-0.034 34.509-27.955 62.498-62.498 62.498zM389.905 416.939c-16.009-12.732-40.414-18.807-73.25-18.807h-29.252v-62.464h-49.937v224.939h78.609c34.065 0 58.982-7.987 74.513-21.265 15.599-13.21 23.45-34.133 23.45-61.611s-8.090-48.026-24.132-60.791zM604.194 365.841c-20.651-20.139-52.19-30.174-94.549-30.174h-72.192v224.939h74.718c39.697 0 70.007-11.093 91.273-30.481 21.265-19.354 31.812-47.036 31.812-81.579 0-34.475-10.377-62.532-31.061-82.705zM812.407 510.601h-99.942v-50.005h99.942v-37.478h-99.942v-87.484h-50.142v224.939h150.050v-49.971z" />
<glyph unicode="&#xe923;" glyph-name="handle" d="M489.984 329.967c-87.757 72.158-146.33 161.178-177.118 211.866l-23.006 43.315c8.055 8.602 69.291 74.206 95.881 109.807 33.382 44.715-15.019 85.060-15.019 85.060s-136.124 136.124-167.151 163.123c-30.993 27.068-66.697 12.049-66.697 12.049-65.229-42.121-132.813-78.78-136.875-254.908-0.137-164.898 125.065-334.985 260.403-466.705 135.612-148.685 321.741-297.745 501.726-297.574 176.128 3.994 212.787 71.612 254.976 136.772 0 0 14.985 35.703-12.049 66.697-27.034 31.095-163.191 167.219-163.191 167.219s-40.346 48.367-85.026 14.985c-33.348-24.883-93.15-80.316-107.52-93.764-0.034 0-100.079 53.35-159.334 102.059z" />
<glyph unicode="&#xe924;" glyph-name="play_btn" d="M954.982 824.047c-29.355 29.457-70.417 47.821-115.371 47.787h-652.595c-44.885 0-85.982-18.33-115.371-47.787-29.457-29.389-47.787-70.451-47.787-115.371v-373.282c0-44.885 18.33-85.982 47.787-115.337 29.389-29.457 70.451-47.821 115.371-47.787h652.595c44.919-0.034 86.050 18.33 115.371 47.787 29.457 29.355 47.821 70.417 47.753 115.337v373.316c0.068 44.885-18.295 85.948-47.753 115.337zM892.075 282.965c-13.551-13.517-31.846-21.709-52.463-21.709h-652.595c-20.617 0-38.878 8.192-52.429 21.709-13.517 13.585-21.709 31.846-21.743 52.429v373.316c0 20.617 8.226 38.878 21.743 52.429 13.551 13.483 31.812 21.709 52.429 21.743h652.595c20.617 0 38.912-8.226 52.463-21.743 13.517-13.551 21.709-31.812 21.709-52.429v-373.316c0-20.582-8.226-38.844-21.709-52.429zM639.317 546.031l-187.051 107.964c-4.267 2.492-9.045 3.721-13.824 3.721-4.813 0-9.557-1.229-13.824-3.721-8.567-4.915-13.824-14.063-13.824-23.927v-216.030c0-9.933 5.257-19.046 13.824-23.996 4.267-2.458 9.045-3.686 13.824-3.686s9.523 1.229 13.824 3.686l187.085 108.032c8.602 4.949 13.824 14.063 13.824 23.962s-5.257 19.046-13.858 23.996zM1023.727 68.164c0-24.303-19.285-43.998-43.11-43.998h-934.639c-23.825 0-43.11 19.695-43.11 43.998v0c0 24.303 19.285 43.964 43.11 43.964h934.639c23.825 0 43.11-19.661 43.11-43.964v0z" />
<glyph unicode="&#xe925;" glyph-name="payment_icon" d="M474.487 842.342c0 29.798-0.034 58.129 0.034 86.494 0.034 23.893 7.168 31.095 30.618 31.13 16.759 0 33.519 0.102 50.244-0.102 16.862-0.273 24.986-8.329 25.122-25.463 0.273-30.413 0.137-60.86 0.137-92.706 7.817-2.048 15.394-4.096 23.142-5.973 105.131-25.771 158.174-110.148 160.495-211.49 0.307-11.81-5.495-18.91-16.828-19.149-30.891-0.751-61.884-1.365-92.809 0.137-5.939 0.273-13.79 9.455-16.452 16.282-4.198 10.615-3.925 22.938-6.997 34.133-17.237 62.464-68.062 92.399-135.134 80.862-41.131-7.066-69.222-29.321-78.882-70.144-10.479-44.578-7.134-88.576 33.929-116.326 30.652-20.719 66.253-34.304 99.977-50.313 40.619-19.388 83.49-34.748 121.958-57.583 83.012-49.425 110.865-128.102 92.331-230.639-16.213-89.702-79.155-135.168-163.362-156.023-6.417-1.604-12.902-2.731-21.504-4.506 0-24.713 0-49.903 0-75.059 0-35.977-3.652-39.629-40.277-39.629-13.21 0-26.385-0.171-39.629 0.102-17.783 0.375-26.010 8.397-26.18 26.249-0.307 27.853-0.102 55.808-0.102 83.934-18.978 4.028-37.444 7.031-55.33 12.015-101.239 28.331-158.481 100.284-161.997 202.684-0.751 22.357 4.779 28.331 26.829 28.57 25.873 0.137 51.78-0.239 77.619 0.137 13.483 0.205 21.129-4.949 22.016-19.081 0.478-8.090 1.536-16.247 3.243-24.201 11.639-56.081 51.575-89.634 113.664-93.184 20.958-1.126 42.769 0.99 63.249 5.632 37.376 8.431 63.625 31.505 73.114 69.53 9.933 39.765 4.13 76.937-26.556 106.803-28.706 28.023-66.048 40.448-102.263 55.228-41.131 16.862-83.49 32.393-121.344 55.228-94.993 57.105-129.263 165.581-87.893 268.698 27.819 69.53 82.603 106.769 153.532 123.255 6.793 1.57 13.722 2.799 22.289 4.471z" />
<glyph unicode="&#xe926;" glyph-name="contract_icon" d="M219.409 155.443v73.114h438.852v-73.114zM219.409 448v73.148h585.148v-73.148zM219.409 301.705v73.148h585.148v-73.148zM746.564 960h-673.417v-1024h877.705v819.78l-204.288 204.22zM731.341 871.765l131.243-131.174h-131.243v131.174zM146.295 9.148v877.773h512v-219.477h219.443v-658.33h-731.443z" />
<glyph unicode="&#xe927;" glyph-name="meeting_icon" d="M537.532 371.2c63.966 46.933 102.4 123.733 102.4 204.8 0 140.8-115.2 255.966-256 255.966-140.766 0-255.966-115.2-255.966-255.966 0-81.067 38.4-157.867 102.366-204.8-123.665-55.433-213.265-170.633-230.332-307.166h85.333c21.333 145.067 149.333 256 298.633 256 149.333 0 277.333-110.933 298.667-256h85.299c-17.067 136.533-106.633 251.733-230.4 307.166v0zM383.966 405.333c-93.867 0-170.633 76.8-170.633 170.667s76.8 170.667 170.633 170.667c93.867 0 170.667-76.8 170.667-170.667-0.034-93.867-76.8-170.667-170.667-170.667v0zM883.098 379.767c34.133 42.667 55.467 98.099 55.467 153.566 0 153.6-136.533 273.067-285.833 256 12.766-12.8 21.333-29.867 29.867-46.933 8.567-12.8 12.8-25.6 17.033-38.4 98.133-17.067 153.6-89.6 153.6-170.667 0-55.467-29.867-106.633-68.267-136.499-12.8-8.533-17.067-21.333-17.067-34.133 0-21.367 12.834-38.4 34.133-42.667 76.8-17.101 136.499-85.402 136.499-166.4h85.367c0 93.867-55.433 183.467-140.8 226.133v0z" />
<glyph unicode="&#xe928;" glyph-name="zoom_icon" d="M998.946 92.604l-235.042 235.008c39.936 63.556 63.113 138.684 63.113 219.341 0 228.147-184.969 413.047-413.082 413.047s-413.047-184.9-413.047-413.047c0-228.113 184.934-413.013 413.082-413.013 87.757 0 168.994 27.443 235.93 74.035l232.209-232.243c16.145-16.111 37.308-24.132 58.402-24.132 21.197 0 42.291 8.021 58.47 24.132 32.222 32.29 32.222 84.617-0.034 116.873zM413.935 267.708c-154.214 0-279.211 125.065-279.211 279.245 0 154.214 124.996 279.211 279.211 279.211 154.18 0 279.177-124.996 279.177-279.211 0.034-154.18-124.962-279.245-279.177-279.245z" />
<glyph unicode="&#xe929;" glyph-name="download" d="M474.726 186.573c18.637-23.313 55.91-23.313 74.581 0l279.518 293.547c23.347 23.279 0 60.587-37.274 60.587h-186.368c0 0 9.284 214.323 0 326.144-4.642 51.2-41.916 93.15-93.184 93.15s-88.542-41.95-93.184-93.184c-9.318-107.145 0-326.144 0-326.144h-186.368c-37.274 0-60.553-37.308-37.274-65.229l279.552-288.87zM838.178 74.718h-652.322c-51.234 0-93.184-41.95-93.184-93.184v0c0-27.921 18.637-46.558 46.592-46.558h745.506c27.921 0 46.558 18.637 46.558 46.558v0c0 51.268-41.882 93.184-93.15 93.184z" />
<glyph unicode="&#xe92a;" glyph-name="approved" d="M512.887 958.566c-282.453 0-511.488-229.001-511.488-511.522 0-282.453 229.001-511.454 511.488-511.454s511.488 229.001 511.488 511.454c0.034 282.522-228.966 511.522-511.488 511.522zM783.394 560.367l-310.511-310.545c-10.206-10.24-26.761-10.24-36.966 0l-29.594 29.594c-2.56 2.56-4.506 5.564-5.734 8.806l-121.754 121.719c-10.206 10.24-10.206 26.761 0 36.966l29.594 29.594c10.206 10.206 26.795 10.206 36.966 0l110.558-110.558 260.949 260.949c10.274 10.206 26.761 10.206 37.001 0l29.559-29.559c10.172-10.206 10.172-26.761-0.068-36.966z" />
<glyph unicode="&#xe92b;" glyph-name="comment" d="M1023.078 358.673c0 91.17-50.893 172.612-130.594 226.987 5.564-25.395 8.841-51.337 8.841-78.029 0-206.097-174.967-378.061-405.504-414.993 48.742-19.593 103.322-31.164 161.553-31.164 54.75 0 106.667 10.069 153.361 27.716 59.255-19.968 123.836-25.19 177.289-25.19-27.887 33.143-47.036 66.048-60.928 94.72 59.426 52.702 95.983 122.846 95.983 199.953zM805.478 507.631c0 180.463-179.985 326.929-402.261 326.929-222.208 0-402.295-146.432-402.295-326.929 0-94.037 49.254-178.722 127.693-238.285-14.746-38.127-39.697-87.893-82.022-138.786 80.35 0 183.774 10.513 263.509 59.426 29.969-5.837 61.030-9.079 93.15-9.079 222.174 0 402.227 146.33 402.227 326.724z" />
</font>
</defs>
</svg>
