<?xml version="1.0" encoding="utf-8"?>
<!-- Generator: Adobe Illustrator 19.0.0, SVG Export Plug-In . SVG Version: 6.00 Build 0)  -->
<svg version="1.1" id="Layer_1" xmlns="http://www.w3.org/2000/svg" xmlns:xlink="http://www.w3.org/1999/xlink" x="0px" y="0px"
	 viewBox="-257 349.7 96.7 94.3" style="enable-background:new -257 349.7 96.7 94.3;" xml:space="preserve">
<style type="text/css">
	.st0{fill:#A6CE39;}
</style>
<path class="st0" d="M-169.2,361.6c-14.6-16.4-42.4-15.7-63.8,0.9h34.2v10.7h18.2l12,22.1v18.6C-157.6,396-157.2,375.1-169.2,361.6z
	 M-198.8,376v18.2h26.4l-9.9-18.2C-182.3,376-198.8,376-198.8,376z M-198.8,413.3h3.4c0.7-5.1,5-9,10.3-9c5.1,0,9.4,3.8,10.3,8.7
	h3.4V397h-27.3V413.3z M-195.9,399.2h5.3v2.8h-5.3C-195.9,402-195.9,399.2-195.9,399.2z M-185.1,407.1c-4.2,0-7.6,3.4-7.6,7.6
	s3.4,7.6,7.6,7.6c4.2,0,7.6-3.4,7.6-7.6S-180.9,407.1-185.1,407.1z M-237.4,404.3c5.3,0,9.6,3.9,10.3,9h25.5v-47.9h-34.8
	c-0.1,0.1-0.1,0.1-0.2,0.2c-15.1,13.5-22.2,31.9-20,47.7h8.9C-247,408.2-242.6,404.3-237.4,404.3z M-185.1,425.1
	c-5.3,0-9.6-3.9-10.3-9h-31.7c-0.7,5.1-5,9-10.3,9s-9.6-3.9-10.3-9h-8.4c1.3,5.9,3.9,11.4,8,16c15.4,17.3,45.6,15.6,67.4-3.9
	c4.3-3.8,7.9-8,10.8-12.4h-4.9C-175.3,421-179.7,425.1-185.1,425.1z M-237.4,407.1c-4.2,0-7.6,3.4-7.6,7.6s3.4,7.6,7.6,7.6
	c4.2,0,7.6-3.4,7.6-7.6S-233.2,407.1-237.4,407.1z"/>
</svg>
