<?xml version="1.0" encoding="utf-8"?>
<!-- Generator: Adobe Illustrator 19.0.0, SVG Export Plug-In . SVG Version: 6.00 Build 0)  -->
<svg version="1.1" id="Layer_1" xmlns="http://www.w3.org/2000/svg" xmlns:xlink="http://www.w3.org/1999/xlink" x="0px" y="0px"
	 viewBox="-257 349.7 96.7 94.3" style="enable-background:new -257 349.7 96.7 94.3;" xml:space="preserve">
<style type="text/css">
	.st0{fill:#A6CE39;}
</style>
<path class="st0" d="M-207.9,373.2c4.2,0,7.6-3.4,7.6-7.6s-3.4-7.6-7.6-7.6s-7.6,3.4-7.6,7.6C-215.4,369.8-212,373.2-207.9,373.2z
	 M-257,407.8c0,9.1,2.9,17.6,8.9,24.3c15.4,17.3,45.6,15.6,67.4-3.9c4.9-4.4,8.9-9.2,12.1-14.4c-9.1,5.4-23.8,8.9-40.6,8.9
	C-231.7,422.7-250.4,416.5-257,407.8z M-161,394.2c2.1-12.1-0.5-23.9-8.2-32.6c-15.4-17.3-45.6-15.6-67.4,3.9
	c-7.8,7-13.5,15.3-16.8,23.9c4.2-3.3,10.5-6,18.8-7.9l0.6,2.8c-11.2,2.6-18.7,6.8-21.5,11.8c-1.1,2.2-1.2,2.6-1.1,5.8
	c1.7,9.9,22.7,17.9,47.4,17.9c19.4,0,36.6-5,43.8-11.9c1.4-3.1,2.6-6.2,3.4-9.3c-1.4-5-7.8-9.7-17.7-13l4.5,5.5l-2.2,1.8l-8.4-10.2
	l13.1-4l0.8,2.7l-6,1.8C-169.7,386.1-163.9,389.9-161,394.2z M-207.9,355.2c5.7,0,10.4,4.7,10.4,10.4c0,5.7-4.7,10.4-10.4,10.4
	s-10.4-4.7-10.4-10.4C-218.3,359.9-213.6,355.2-207.9,355.2z M-195.5,408.9h-4.2v4.6h-2.8V401l3.2-11.8l2.7,0.7l-3.1,11.4v4.6h2.3
	l9-24.8h-39.6l9,24.8h1.9v-4.7l-2.4-11.4l2.8-0.6l2.4,11.9v12.3h-2.8v-4.6h-3.9l-11-30.5h47.7L-195.5,408.9z"/>
</svg>
