<?xml version="1.0" encoding="utf-8"?>
<!-- Generator: Adobe Illustrator 19.0.0, SVG Export Plug-In . SVG Version: 6.00 Build 0)  -->
<svg version="1.1" id="Layer_1" xmlns="http://www.w3.org/2000/svg" xmlns:xlink="http://www.w3.org/1999/xlink" x="0px" y="0px"
	 viewBox="-257 349.7 96.7 94.3" style="enable-background:new -257 349.7 96.7 94.3;" xml:space="preserve">
<style type="text/css">
	.st0{fill:#A6CE39;}
</style>
<path class="st0" d="M-232.4,412.3c0-0.7-0.1-1.3-0.4-1.8c-0.3,0.6-0.4,1.2-0.4,1.8s0.2,1.3,0.4,1.8
	C-232.5,413.6-232.4,413-232.4,412.3z M-228.7,416.8c2.4,0,4.4-2,4.4-4.4c0-2.4-2-4.4-4.4-4.4c-1,0-1.9,0.3-2.6,0.8
	c0.7,1,1.1,2.3,1.1,3.6s-0.4,2.6-1.1,3.6C-230.6,416.5-229.7,416.8-228.7,416.8z M-169.2,361.6c-15.4-17.3-45.6-15.6-67.4,3.9
	c-1.6,1.4-3,2.8-4.4,4.3c0.6-0.1,1.2-0.2,1.9-0.2h59.6c5.7,0,10.4,4.2,11.3,9.7h0.1v33.7C-157.6,395.4-157.3,374.9-169.2,361.6z
	 M-179.6,372.5h-59.6c-4.1,0-7.6,2.9-8.4,6.8h76.4C-172,375.5-175.4,372.5-179.6,372.5z M-247.7,390.7h76.7v-8.5h-76.7V390.7z
	 M-236.8,416.8c1,0,1.9-0.3,2.6-0.8c-0.7-1-1.1-2.3-1.1-3.6s0.4-2.6,1.1-3.6c-0.7-0.5-1.6-0.8-2.6-0.8c-2.4,0-4.4,2-4.4,4.4
	S-239.2,416.8-236.8,416.8z M-247.7,414.5c0,4.7,3.8,8.6,8.6,8.6h59.6c4.7,0,8.6-3.8,8.6-8.6v-20.9h-76.7V414.5z M-236.8,405.8
	c1.5,0,2.9,0.5,4,1.4c1.1-0.9,2.5-1.4,4-1.4c3.6,0,6.6,2.9,6.6,6.6c0,3.6-2.9,6.6-6.6,6.6c-1.5,0-2.9-0.5-4-1.4
	c-1.1,0.9-2.5,1.4-4,1.4c-3.6,0-6.6-2.9-6.6-6.6C-243.4,408.7-240.4,405.8-236.8,405.8z M-239.1,425.9c-6.3,0-11.4-5.1-11.4-11.4
	v-31.3c-9.1,17-8.8,36.3,2.5,48.9c15.4,17.3,45.6,15.6,67.4-3.9c0.9-0.8,1.7-1.6,2.6-2.4c-0.5,0.1-1,0.1-1.4,0.1L-239.1,425.9
	L-239.1,425.9z"/>
</svg>
