<?xml version="1.0" encoding="utf-8"?>
<!-- Generator: Adobe Illustrator 19.0.0, SVG Export Plug-In . SVG Version: 6.00 Build 0)  -->
<svg version="1.1" id="Layer_1" xmlns="http://www.w3.org/2000/svg" xmlns:xlink="http://www.w3.org/1999/xlink" x="0px" y="0px"
	 viewBox="0 0 90 113.3" style="enable-background:new 0 0 90 113.3;" xml:space="preserve">
<style type="text/css">
	.st0{fill:#D9DEE2;}
	.st1{fill:#F0F2F4;}
	.st2{fill:#2B5899;}
	.st3{fill:#F1F2F2;}
	.st4{opacity:0.54;}
</style>
<rect x="5.4" class="st0" width="84.3" height="113.3"/>
<rect x="9.9" class="st1" width="80.1" height="113.3"/>
<rect y="12.1" class="st2" width="56.8" height="33.1"/>
<g>
	<path class="st3" d="M9.1,20.9H14c0.9,0,1.8,0.1,2.5,0.4c0.7,0.2,1.4,0.6,1.9,1c0.5,0.4,0.9,0.9,1.2,1.6c0.3,0.6,0.6,1.3,0.7,2
		c0.1,0.7,0.2,1.5,0.2,2.4c0,0.9-0.1,1.7-0.2,2.4c-0.1,0.7-0.4,1.4-0.7,2c-0.3,0.6-0.7,1.2-1.2,1.6c-0.5,0.4-1.1,0.8-1.9,1
		c-0.7,0.2-1.6,0.4-2.5,0.4H9.1V20.9z M11.3,22.8v10.9h2.5c1.5,0,2.6-0.5,3.3-1.4c0.7-0.9,1.1-2.3,1.1-4.1c0-0.9-0.1-1.6-0.2-2.3
		c-0.2-0.7-0.4-1.2-0.8-1.7c-0.3-0.5-0.8-0.9-1.4-1.1c-0.6-0.3-1.3-0.4-2.1-0.4H11.3z"/>
	<path class="st3" d="M22.6,29.4v-2.1c0-2.1,0.5-3.7,1.6-4.9c1.1-1.2,2.6-1.8,4.4-1.8c1.9,0,3.3,0.6,4.4,1.8
		c1.1,1.2,1.6,2.8,1.6,4.9v2.1c0,2.1-0.5,3.7-1.6,4.8C32,35.4,30.5,36,28.6,36c-1.9,0-3.3-0.6-4.4-1.7
		C23.1,33.1,22.6,31.5,22.6,29.4z M24.9,27.3v2.1c0,1.5,0.3,2.7,1,3.5c0.7,0.8,1.6,1.2,2.8,1.2c1.1,0,2.1-0.4,2.8-1.2
		c0.7-0.8,1-1.9,1-3.5v-2.1c0-1.5-0.4-2.7-1.1-3.5c-0.7-0.8-1.6-1.2-2.8-1.2c-1.1,0-2,0.4-2.7,1.2C25.2,24.6,24.9,25.8,24.9,27.3z"
		/>
	<path class="st3" d="M39.2,27.4v1.9c0,1.6,0.3,2.8,1,3.6c0.7,0.8,1.6,1.2,2.7,1.2c1.1,0,1.9-0.3,2.5-0.9c0.6-0.6,0.9-1.3,0.9-2.1
		h2.2v0.1c0,0.5-0.1,0.9-0.2,1.4c-0.1,0.5-0.4,0.9-0.7,1.3c-0.3,0.4-0.7,0.8-1.1,1.1c-0.4,0.3-1,0.6-1.6,0.8c-0.6,0.2-1.3,0.3-2,0.3
		c-1.8,0-3.3-0.6-4.3-1.7c-1-1.2-1.6-2.8-1.6-5v-1.9c0-2.2,0.5-3.8,1.6-5c1.1-1.2,2.5-1.8,4.3-1.8c0.9,0,1.7,0.1,2.4,0.4
		c0.7,0.3,1.3,0.7,1.8,1.1c0.5,0.5,0.8,1,1,1.6c0.2,0.6,0.4,1.2,0.4,1.9v0.1h-2.2c0-0.4-0.1-0.8-0.2-1.2c-0.1-0.4-0.4-0.7-0.6-1
		c-0.3-0.3-0.6-0.6-1.1-0.7c-0.4-0.2-0.9-0.3-1.5-0.3c-1.1,0-2,0.4-2.7,1.2C39.5,24.6,39.2,25.8,39.2,27.4z"/>
</g>
<g class="st4">
	<rect x="33.1" y="62.6" class="st2" width="33.6" height="2.2"/>
	<rect x="33.1" y="68.4" class="st2" width="33.6" height="2.2"/>
	<rect x="33.1" y="74.2" class="st2" width="33.6" height="2.2"/>
	<rect x="33.1" y="80" class="st2" width="33.6" height="2.2"/>
	<rect x="33.1" y="85.8" class="st2" width="33.6" height="2.2"/>
	<rect x="33.1" y="91.6" class="st2" width="33.6" height="2.2"/>
</g>
</svg>
