<?xml version="1.0" encoding="utf-8"?>
<!-- Generator: Adobe Illustrator 19.0.0, SVG Export Plug-In . SVG Version: 6.00 Build 0)  -->
<svg version="1.1" id="Layer_1" xmlns="http://www.w3.org/2000/svg" xmlns:xlink="http://www.w3.org/1999/xlink" x="0px" y="0px"
	 viewBox="0 0 90 113.3" style="enable-background:new 0 0 90 113.3;" xml:space="preserve">
<style type="text/css">
	.st0{filter:url(#Adobe_OpacityMaskFilter);}
	.st1{fill:url(#SVGID_1_);}
	.st2{display:none;opacity:0.2;mask:url(#XMLID_62_);}
	.st3{fill:#D9DEE2;}
	.st4{fill:#F0F2F4;}
	.st5{fill:#EE3E24;}
	.st6{fill:#F1F2F2;}
</style>
<defs>
	<filter id="Adobe_OpacityMaskFilter" filterUnits="userSpaceOnUse" x="-76.5" y="-67.4" width="248.2" height="248.2">
		<feColorMatrix  type="matrix" values="1 0 0 0 0  0 1 0 0 0  0 0 1 0 0  0 0 0 1 0"/>
	</filter>
</defs>
<mask maskUnits="userSpaceOnUse" x="-76.5" y="-67.4" width="248.2" height="248.2" id="XMLID_62_">
	<g class="st0">
		<radialGradient id="SVGID_1_" cx="47.8842" cy="56.6459" r="92.4656" gradientUnits="userSpaceOnUse">
			<stop  offset="0" style="stop-color:#FFFFFF"/>
			<stop  offset="0.1556" style="stop-color:#CBCBCB"/>
			<stop  offset="0.3878" style="stop-color:#848484"/>
			<stop  offset="0.5969" style="stop-color:#4B4B4B"/>
			<stop  offset="0.775" style="stop-color:#222222"/>
			<stop  offset="0.9151" style="stop-color:#090909"/>
			<stop  offset="1" style="stop-color:#000000"/>
		</radialGradient>
		<rect x="-47.9" y="-32.4" class="st1" width="191.5" height="178.1"/>
	</g>
</mask>
<g id="XMLID_34_" class="st2">
	<g style="display:inline;">
		
			<image style="overflow:visible;" width="1034" height="1034" id="XMLID_24_" xlink:href="C65C96D2.png"  transform="matrix(0.24 0 0 0.24 -76.5054 -67.4155)">
		</image>
	</g>
</g>
<rect id="XMLID_33_" x="5.4" class="st3" width="84.3" height="113.3"/>
<rect id="XMLID_32_" x="9.9" class="st4" width="80.1" height="113.3"/>
<rect id="XMLID_31_" y="12.1" class="st5" width="56.8" height="33.1"/>
<path id="XMLID_30_" class="st5" d="M44,82c1-2,2.2-4.3,3.1-6.6l0,0l0.4-0.9c-1.2-4.7-2-8.4-1.3-10.8l0,0c0.2-0.6,0.9-1,1.7-1l0,0
	l0.5,0h0.1c1.1,0,1.6,1.3,1.6,1.9l0,0c0.1,0.9-0.3,2.4-0.3,2.4l0,0c0-0.6,0-1.6-0.4-2.4l0,0c-0.4-1-0.9-1.5-1.2-1.6l0,0
	c-0.2,0.1-0.4,0.4-0.4,0.9l0,0c-0.1,0.7-0.2,1.6-0.2,2.1l0,0c0,1.6,0.3,3.8,1,6l0,0c0.1-0.3,0.2-0.7,0.3-1l0,0c0.1-0.5,1-3.7,1-3.7
	l0,0c0,0-0.2,4.3-0.5,5.6l0,0c-0.1,0.3-0.1,0.5-0.2,0.8l0,0c1,2.9,2.7,5.5,4.7,7.4l0,0c0.8,0.7,1.8,1.3,2.7,1.9l0,0
	c2.1-0.3,4-0.4,5.6-0.4l0,0c2.1,0,3.7,0.3,4.3,1l0,0c0.3,0.3,0.4,0.7,0.5,1.1l0,0c0,0.2-0.1,0.5-0.1,0.6l0,0c0-0.1,0-0.7-1.7-1.2
	l0,0c-1.3-0.4-3.8-0.4-6.8-0.1l0,0c3.5,1.7,6.8,2.5,7.9,2l0,0c0.3-0.1,0.6-0.6,0.6-0.6l0,0c0,0-0.2,0.9-0.3,1.1l0,0
	c-0.2,0.2-0.5,0.5-0.8,0.6l0,0c-1.7,0.5-6.1-0.6-9.9-2.8l0,0c-4.3,0.6-9,1.8-12.7,3l0,0c-3.7,6.5-6.5,9.5-8.7,8.3l0,0l-0.8-0.4
	C33,94.9,33,94.4,33,94l0,0c0.3-1.3,1.9-3.2,5.1-5.2l0,0c0.3-0.2,1.9-1,1.9-1l0,0c0,0-1.2,1.1-1.4,1.3l0,0c-2.6,2.1-4.5,4.8-4.5,5.8
	l0,0l0,0.1C36.4,94.8,39.7,90.3,44,82 M45.3,82.6c-0.7,1.3-1.4,2.6-2,3.7l0,0c3.5-1.5,7.4-2.4,11-3.1l0,0c-0.5-0.3-1-0.7-1.4-1.1
	l0,0c-2-1.7-3.5-3.8-4.6-6l0,0C47.5,78,46.7,80,45.3,82.6"/>
<g id="XMLID_29_">
	<path class="st6" d="M11.1,20.9h5.6c1.5,0,2.6,0.4,3.5,1.3c0.9,0.9,1.3,2,1.3,3.4c0,1.4-0.4,2.5-1.3,3.4c-0.9,0.9-2,1.3-3.5,1.3
		h-3.3v5.4h-2.2V20.9z M13.4,22.8v5.6h2.1c0.6,0,1.2,0,1.6-0.1c0.4-0.1,0.8-0.2,1.2-0.4c0.3-0.2,0.6-0.5,0.8-0.9
		c0.2-0.4,0.2-0.8,0.2-1.4c0-0.9-0.2-1.6-0.7-2.1c-0.5-0.5-1.2-0.7-2.1-0.7H13.4z"/>
	<path class="st6" d="M23.7,20.9h4.9c0.9,0,1.8,0.1,2.5,0.4c0.7,0.2,1.4,0.6,1.9,1c0.5,0.4,0.9,0.9,1.2,1.6c0.3,0.6,0.6,1.3,0.7,2
		c0.1,0.7,0.2,1.5,0.2,2.4c0,0.9-0.1,1.7-0.2,2.4c-0.1,0.7-0.4,1.4-0.7,2c-0.3,0.6-0.7,1.2-1.2,1.6c-0.5,0.4-1.1,0.8-1.9,1
		c-0.7,0.2-1.6,0.4-2.5,0.4h-4.9V20.9z M26,22.8v10.9h2.5c1.5,0,2.6-0.5,3.3-1.4c0.7-0.9,1.1-2.3,1.1-4.1c0-0.9-0.1-1.6-0.2-2.3
		c-0.2-0.7-0.4-1.2-0.8-1.7c-0.3-0.5-0.8-0.9-1.4-1.1c-0.6-0.3-1.3-0.4-2.1-0.4H26z"/>
	<path class="st6" d="M40.1,35.7h-2.2V20.9h9v1.9h-6.7v4.7h6.2v1.9h-6.2V35.7z"/>
</g>
</svg>
