<svg xmlns="http://www.w3.org/2000/svg">
	<symbol id="facebook" viewBox="0 0 100 100">
		<path d="M50 0C22.4 0 0 22.4 0 50s22.4 50 50 50 50-22.4 50-50S77.6 0 50 0zm12.5 33.3h-5.6c-2.2 0-2.7.9-2.7 3.2v5.1h8.3l-.9 8.4h-7.5v29.2H41.7V50h-8.3v-8.3h8.3V32c0-7.4 3.9-11.2 12.6-11.2h8.2v12.5z"/>
	</symbol>
	<symbol id="phone" viewBox="0 0 100 100">
		<path d="M50 14.6c-14.2 0-28.5 2.6-33.7 7.6-4.3 4.2-5.7 11.7-6.2 16.4 0 0-.1.5-.1.7 0 1.8 1.5 3.3 3.3 3.3.2 0 8.2-.7 13.1-1 .1 0 .2 0 .3-.1 1.8 0 3.3-1.5 3.3-3.3v-6.6c0-2 1.7-3.7 3.7-3.7h32.6c2 0 3.7 1.6 3.7 3.7v6.6c0 1.8 1.5 3.3 3.3 3.3.1 0 .2 0 .4.1 4.8.4 12.8 1 13.1 1 1.8 0 3.3-1.5 3.3-3.3 0-.2-.1-.7-.1-.7-.5-4.7-1.9-12.2-6.2-16.4-5.3-5.1-19.6-7.6-33.8-7.6zm0 34.1a6.7 6.7 0 1 0 0 13.4 6.7 6.7 0 0 0 0-13.4zm-5-15v-4.2c0-2.3-1.9-4.2-4.2-4.2-2.3 0-4.2 1.9-4.2 4.2v4.2l-22.5 24c-1.5 1.5-2.5 3.6-2.5 6v6.7c0 3.7 3 6.7 6.7 6.7H20v4.2c0 2.3 1.9 4.2 4.2 4.2s4.2-1.9 4.2-4.2v-4.2h43.3v4.2c0 2.3 1.9 4.2 4.2 4.2 2.3 0 4.2-1.9 4.2-4.2v-4.2h1.7c3.7 0 6.7-3 6.7-6.7v-6.7c0-2.3-1-4.5-2.5-6l-22.5-24v-4.2c0-2.3-1.9-4.2-4.2-4.2-2.3 0-4.2 1.9-4.2 4.2v4.2H45zm5 8.4c7.4 0 13.3 6 13.3 13.3 0 7.4-6 13.3-13.3 13.3-7.4 0-13.3-6-13.3-13.3S42.6 42.1 50 42.1z"/>
	</symbol>
	<symbol id="user" viewBox="0 0 100 100">
		<path d="M52.5 10.2h.2c.9.1 1.8.4 2.6.7.3.1.6.2.8.3.4.2.8.3 1.1.5 1.5.7 3 1.6 4.3 2.8h.1c.4.4.8.9 1.2 1.4 1.4 1.5 2.6 3 3.6 4.8 1.7 3 3 6.4 3.5 9.9.3-.1.5-.1.7 0 1.7.6 2.2 3.9 1 7.4-.7 2.1-1.8 3.7-2.9 4.6-1.5 5.9-4.7 10.9-8.9 13.9V60l3.3 3.3 6.7 3.3c3.5 1.7 7.1 3.5 10.6 5.2 2.4 1.4 5.2 2.2 7.2 4.2 2.4 2.4 2.2 5.8 2.2 8.9.3 2.1-.5 4.8-3 5H17.9c-2.1-.2-4.5.5-6.5-.5-2.1-1.4-1.3-4.1-1.5-6.1-.3-3.3.9-6.8 3.9-8.6 5.4-2.7 10.7-5.3 16.1-8l6.7-3.3L40 60v-3.4c-4.2-3.1-7.4-8-8.9-13.9-1.1-.9-2.2-2.5-2.9-4.6-1.1-3.5-.7-6.8 1-7.4.2-.1.5-.1.7 0 .5-3.5 1.8-6.9 3.5-9.9 1-1.8 2.2-3.3 3.6-4.8.4-.4.8-1 1.2-1.4.5-.4 1-.8 1.6-1.1.2-.1.3-.3.5-.4.1-.1.2 0 .3-.1.6-.4 1.3-.8 2-1.1.1-.1.2-.2.3-.2.3-.1.6-.2.8-.3.7-.3 1.4-.5 2.2-.7 1.3-.3 2.6-.5 4-.5.9-.2 1.8-.1 2.6 0z"/>
	</symbol>
	<symbol id="more" viewBox="0 0 100 100">
		<path d="M50 8.3C73 8.3 91.7 27 91.7 50S73 91.7 50 91.7 8.3 73 8.3 50 27 8.3 50 8.3zM50 0C22.4 0 0 22.4 0 50s22.4 50 50 50 50-22.4 50-50S77.6 0 50 0zm8.3 50L39.6 68.8l6.4 6.3 24.9-25-25-25.1-6.4 6.3L58.3 50z"/>
	</symbol>
	<symbol id="arrow-up" viewBox="0 0 100 100">
		<path d="M53.9 85.9c-2.1-2.1-5.6-2.1-7.8 0L32.8 98.8c-2.1 2.1-3.9 1.3-3.9-1.7V66.8c0-3 2.4-5.4 5.4-5.4h3.9c3 0 5.4-2.4 5.4-5.4V42.6c0-3-2.4-5.4-5.4-5.4H26.4c-3 0-4-2-2.2-4.4l22.6-31c1.8-2.4 4.6-2.4 6.4 0l22.6 31c1.8 2.4.8 4.4-2.2 4.4H61.4c-3 0-5.4 2.4-5.4 5.4v13.3c0 3 2.4 5.4 5.4 5.4h4.3c3 0 5.4 2.4 5.4 5.4v30.4c0 3-1.8 3.7-3.9 1.7L53.9 85.9z"/>
	</symbol>
	<symbol id="arrow-right" viewBox="0 0 100 100">
		<path d="M14.1 53.9c2.1-2.1 2.1-5.6 0-7.8L1.2 32.8c-2.1-2.1-1.3-3.9 1.7-3.9h30.4c3 0 5.4 2.4 5.4 5.4v3.9c0 3 2.4 5.4 5.4 5.4h13.3c3 0 5.4-2.4 5.4-5.4V26.4c0-3 2-4 4.4-2.2l31 22.6c2.4 1.8 2.4 4.6 0 6.4l-31 22.6c-2.4 1.8-4.4.8-4.4-2.2V61.4c0-3-2.4-5.4-5.4-5.4H44.1c-3 0-5.4 2.4-5.4 5.4v4.3c0 3-2.4 5.4-5.4 5.4H2.8c-3 0-3.7-1.8-1.7-3.9l13-13.3z"/>
	</symbol>
	<symbol id="arrow-down" viewBox="0 0 100 100">
		<path d="M46.1 14.1c2.1 2.1 5.6 2.1 7.8 0L67.2 1.2c2.1-2.1 3.9-1.3 3.9 1.7v30.4c0 3-2.4 5.4-5.4 5.4h-3.9c-3 0-5.4 2.4-5.4 5.4v13.3c0 3 2.4 5.4 5.4 5.4h11.8c3 0 4 2 2.2 4.4l-22.6 31c-1.8 2.4-4.6 2.4-6.4 0l-22.6-31c-1.8-2.4-.8-4.4 2.2-4.4h12.2c3 0 5.4-2.4 5.4-5.4V44.1c0-3-2.4-5.4-5.4-5.4h-4.3c-3 0-5.4-2.4-5.4-5.4V2.8c0-3 1.8-3.7 3.9-1.7l13.3 13z"/>
	</symbol>
	<symbol id="arrow-left" viewBox="0 0 100 100">
		<path d="M85.9 46.1c-2.1 2.1-2.1 5.6 0 7.8l12.9 13.3c2.1 2.1 1.3 3.9-1.7 3.9H66.8c-3 0-5.4-2.4-5.4-5.4v-3.9c0-3-2.4-5.4-5.4-5.4H42.6c-3 0-5.4 2.4-5.4 5.4v11.8c0 3-2 4-4.4 2.2l-31-22.6c-2.4-1.8-2.4-4.6 0-6.4l31-22.6c2.4-1.8 4.4-.8 4.4 2.2v12.2c0 3 2.4 5.4 5.4 5.4h13.3c3 0 5.4-2.4 5.4-5.4v-4.3c0-3 2.4-5.4 5.4-5.4h30.4c3 0 3.7 1.8 1.7 3.9L85.9 46.1z"/>
	</symbol>
	<symbol id="video" viewBox="0 0 100 100">
		<path d="M50 84.7c-22.3 0-39-2.5-39.2-2.5-4.1-.3-7.3-2.9-8.6-6.8V75c-.4-.5-.4-1.1-.4-1.5-.1-.7-.2-1.5-.3-2.4C.9 66.3 0 58.6 0 50c0-8.2.8-15.5 1.4-20.4.1-1.2.3-2.2.3-3.1v-.3l.2-.2c.2-.2.2-.4.2-.8v-.6c1.3-3.9 4.6-6.5 8.6-6.8.2 0 17.3-2.5 39.2-2.5 22.3 0 39 2.5 39.2 2.5 4.1.3 7.3 2.9 8.6 6.8v.4c.4.5.4 1.1.4 1.5.9 4.3 1.7 13.2 1.7 23.4 0 8.2-.8 15.5-1.4 20.4-.1 1.2-.3 2.2-.3 3.1v.3l-.2.2c-.2.2-.2.4-.2.8v.6c-1.3 3.9-4.6 6.5-8.6 6.8-.1.1-17.2 2.6-39.1 2.6zm-38.2-3.9c3.5.5 18.7 2.4 38.2 2.4 19.2 0 34.7-1.9 38.2-2.4v-.1c3.8 0 7-2.2 8.2-5.8v-.3c0-.4 0-1 .4-1.6.1-.8.2-1.8.3-2.9.5-4.8 1.4-12.1 1.4-20.2 0-10.2-.9-19-1.7-23.2v-.1c0-.4 0-.6-.2-.8l-.2-.2V25c-1.2-3.6-4.3-5.8-8.2-5.8v-.1c-3.5-.5-18.7-2.4-38.2-2.4-19.2 0-34.7 1.9-38.2 2.4v.1c-3.8 0-7 2.2-8.2 5.8v.3c0 .4 0 1-.4 1.6-.1.8-.2 1.8-.3 2.8-.6 4.9-1.4 12.2-1.4 20.3 0 8.5.9 16.2 1.4 20.8.1 1 .2 1.8.3 2.5v.1c0 .4 0 .6.2.8l.2.2v.6c1.2 3.6 4.3 5.8 8.2 5.8zm31.4-13.1c-.4 0-1.1 0-1.7-.5-1-.5-1.6-1.6-1.6-2.7V35.6c0-1.2.6-2.3 1.7-2.8s2.2-.5 3.2 0l.1.1L65 47.4c.5.5 1 1.5 1.1 2.5.2.5.2 1 .1 1.5-.2.6-.6 1.1-1.3 1.4l-20 14.3c-.6.6-1.3.6-1.7.6zm0-33.8c-.3 0-.6.1-1 .2-.5.3-.9.8-.9 1.5v28.9c0 .7.3 1.2.9 1.5l.1.1.1.1c.2.2.4.2.8.2s.6 0 .8-.2V66l20-14.5h.1c.3-.1.5-.3.6-.6.1-.2 0-.4 0-.5l-.1-.2V50c0-.6-.3-1.3-.6-1.6L44.1 34.1c-.3-.2-.6-.2-.9-.2z" />
	</symbol>
	<symbol id="google" viewBox="0 0 100 100">
		<path d="M50 0C22.4 0 0 22.4 0 50s22.4 50 50 50 50-22.4 50-50S77.6 0 50 0zM37.8 67c-9.4 0-17-7.6-17-17s7.6-17 17-17c4.6 0 8.4 1.7 11.4 4.4l-4.6 4.5c-1.3-1.2-3.5-2.6-6.8-2.6-5.8 0-10.5 4.8-10.5 10.7S32 60.8 37.8 60.8c6.7 0 9.3-4.8 9.7-7.3h-9.7v-5.8h16.1c.2.8.3 1.7.3 2.8 0 9.6-6.5 16.5-16.4 16.5zm41.4-14.6h-7.3v7.3H67v-7.3h-7.3v-4.9H67v-7.3h4.9v7.3h7.3v4.9z"/>
	</symbol>
	<symbol id="youtube" viewBox="0 0 100 100">
		<path d="M50 0C22.4 0 0 22.4 0 50s22.4 50 50 50 50-22.4 50-50S77.6 0 50 0zm18.5 70.4c-8.8.6-28.3.6-37 0-9.5-.7-10.6-5.3-10.7-20.4.1-15.1 1.2-19.7 10.7-20.4 8.7-.6 28.3-.6 37 0 9.5.7 10.6 5.3 10.7 20.4-.1 15.1-1.2 19.7-10.7 20.4zM41.7 40.2L62.2 50l-20.5 9.8V40.2z" />
	</symbol>
</svg>